G04 #@! TF.GenerationSoftware,KiCad,Pcbnew,5.1.4-e60b266~84~ubuntu18.04.1*
G04 #@! TF.CreationDate,2019-08-27T08:39:42+03:00*
G04 #@! TF.ProjectId,pcb,7063622e-6b69-4636-9164-5f7063625858,rev?*
G04 #@! TF.SameCoordinates,Original*
G04 #@! TF.FileFunction,Legend,Top*
G04 #@! TF.FilePolarity,Positive*
%FSLAX46Y46*%
G04 Gerber Fmt 4.6, Leading zero omitted, Abs format (unit mm)*
G04 Created by KiCad (PCBNEW 5.1.4-e60b266~84~ubuntu18.04.1) date 2019-08-27 08:39:42*
%MOMM*%
%LPD*%
G04 APERTURE LIST*
%ADD10C,0.120000*%
%ADD11C,0.150000*%
G04 APERTURE END LIST*
D10*
X215530000Y-81730000D02*
X216730000Y-81730000D01*
X216730000Y-81730000D02*
X216730000Y-77530000D01*
X216730000Y-77530000D02*
X215530000Y-77530000D01*
X208730000Y-81730000D02*
X207530000Y-81730000D01*
X207530000Y-81730000D02*
X207530000Y-77530000D01*
X207530000Y-77530000D02*
X208730000Y-77530000D01*
X215830000Y-82030000D02*
X217030000Y-82030000D01*
X217030000Y-82030000D02*
X217030000Y-80830000D01*
X54100000Y-78577221D02*
X54100000Y-78902779D01*
X55120000Y-78577221D02*
X55120000Y-78902779D01*
X56640000Y-82387221D02*
X56640000Y-82712779D01*
X57660000Y-82387221D02*
X57660000Y-82712779D01*
X57660000Y-78902779D02*
X57660000Y-78577221D01*
X56640000Y-78902779D02*
X56640000Y-78577221D01*
X97190000Y-82670000D02*
X105250000Y-82670000D01*
X97190000Y-78150000D02*
X97190000Y-82670000D01*
X105250000Y-78150000D02*
X97190000Y-78150000D01*
X101762779Y-83310000D02*
X101437221Y-83310000D01*
X101762779Y-84330000D02*
X101437221Y-84330000D01*
X192877221Y-28450000D02*
X193202779Y-28450000D01*
X192877221Y-27430000D02*
X193202779Y-27430000D01*
X194820000Y-31912779D02*
X194820000Y-31587221D01*
X193800000Y-31912779D02*
X193800000Y-31587221D01*
X197005000Y-35040000D02*
X199545000Y-35040000D01*
X197005000Y-35040000D02*
X197005000Y-37580000D01*
X197255000Y-35290000D02*
X206605000Y-35290000D01*
X197255000Y-51070000D02*
X197255000Y-35290000D01*
X206605000Y-51070000D02*
X197255000Y-51070000D01*
X206605000Y-35290000D02*
X206605000Y-51070000D01*
X192877221Y-25910000D02*
X193202779Y-25910000D01*
X192877221Y-24890000D02*
X193202779Y-24890000D01*
X230450000Y-113610000D02*
X230450000Y-120070000D01*
X234980000Y-113610000D02*
X232380000Y-113610000D01*
X236910000Y-113610000D02*
X236910000Y-120070000D01*
X234980000Y-120070000D02*
X232380000Y-120070000D01*
X236880000Y-113610000D02*
X236910000Y-113610000D01*
X230450000Y-113610000D02*
X230480000Y-113610000D01*
X230450000Y-120070000D02*
X230480000Y-120070000D01*
X236910000Y-120070000D02*
X236880000Y-120070000D01*
X221560000Y-113610000D02*
X221560000Y-120070000D01*
X226090000Y-113610000D02*
X223490000Y-113610000D01*
X228020000Y-113610000D02*
X228020000Y-120070000D01*
X226090000Y-120070000D02*
X223490000Y-120070000D01*
X227990000Y-113610000D02*
X228020000Y-113610000D01*
X221560000Y-113610000D02*
X221590000Y-113610000D01*
X221560000Y-120070000D02*
X221590000Y-120070000D01*
X228020000Y-120070000D02*
X227990000Y-120070000D01*
X212670000Y-113610000D02*
X212670000Y-120070000D01*
X217200000Y-113610000D02*
X214600000Y-113610000D01*
X219130000Y-113610000D02*
X219130000Y-120070000D01*
X217200000Y-120070000D02*
X214600000Y-120070000D01*
X219100000Y-113610000D02*
X219130000Y-113610000D01*
X212670000Y-113610000D02*
X212700000Y-113610000D01*
X212670000Y-120070000D02*
X212700000Y-120070000D01*
X219130000Y-120070000D02*
X219100000Y-120070000D01*
X203780000Y-113610000D02*
X203780000Y-120070000D01*
X208310000Y-113610000D02*
X205710000Y-113610000D01*
X210240000Y-113610000D02*
X210240000Y-120070000D01*
X208310000Y-120070000D02*
X205710000Y-120070000D01*
X210210000Y-113610000D02*
X210240000Y-113610000D01*
X203780000Y-113610000D02*
X203810000Y-113610000D01*
X203780000Y-120070000D02*
X203810000Y-120070000D01*
X210240000Y-120070000D02*
X210210000Y-120070000D01*
X194890000Y-113610000D02*
X194890000Y-120070000D01*
X199420000Y-113610000D02*
X196820000Y-113610000D01*
X201350000Y-113610000D02*
X201350000Y-120070000D01*
X199420000Y-120070000D02*
X196820000Y-120070000D01*
X201320000Y-113610000D02*
X201350000Y-113610000D01*
X194890000Y-113610000D02*
X194920000Y-113610000D01*
X194890000Y-120070000D02*
X194920000Y-120070000D01*
X201350000Y-120070000D02*
X201320000Y-120070000D01*
X186000000Y-113610000D02*
X186000000Y-120070000D01*
X190530000Y-113610000D02*
X187930000Y-113610000D01*
X192460000Y-113610000D02*
X192460000Y-120070000D01*
X190530000Y-120070000D02*
X187930000Y-120070000D01*
X192430000Y-113610000D02*
X192460000Y-113610000D01*
X186000000Y-113610000D02*
X186030000Y-113610000D01*
X186000000Y-120070000D02*
X186030000Y-120070000D01*
X192460000Y-120070000D02*
X192430000Y-120070000D01*
X177110000Y-113610000D02*
X177110000Y-120070000D01*
X181640000Y-113610000D02*
X179040000Y-113610000D01*
X183570000Y-113610000D02*
X183570000Y-120070000D01*
X181640000Y-120070000D02*
X179040000Y-120070000D01*
X183540000Y-113610000D02*
X183570000Y-113610000D01*
X177110000Y-113610000D02*
X177140000Y-113610000D01*
X177110000Y-120070000D02*
X177140000Y-120070000D01*
X183570000Y-120070000D02*
X183540000Y-120070000D01*
X168220000Y-113610000D02*
X168220000Y-120070000D01*
X172750000Y-113610000D02*
X170150000Y-113610000D01*
X174680000Y-113610000D02*
X174680000Y-120070000D01*
X172750000Y-120070000D02*
X170150000Y-120070000D01*
X174650000Y-113610000D02*
X174680000Y-113610000D01*
X168220000Y-113610000D02*
X168250000Y-113610000D01*
X168220000Y-120070000D02*
X168250000Y-120070000D01*
X174680000Y-120070000D02*
X174650000Y-120070000D01*
X230450000Y-102180000D02*
X230450000Y-108640000D01*
X234980000Y-102180000D02*
X232380000Y-102180000D01*
X236910000Y-102180000D02*
X236910000Y-108640000D01*
X234980000Y-108640000D02*
X232380000Y-108640000D01*
X236880000Y-102180000D02*
X236910000Y-102180000D01*
X230450000Y-102180000D02*
X230480000Y-102180000D01*
X230450000Y-108640000D02*
X230480000Y-108640000D01*
X236910000Y-108640000D02*
X236880000Y-108640000D01*
X221560000Y-102180000D02*
X221560000Y-108640000D01*
X226090000Y-102180000D02*
X223490000Y-102180000D01*
X228020000Y-102180000D02*
X228020000Y-108640000D01*
X226090000Y-108640000D02*
X223490000Y-108640000D01*
X227990000Y-102180000D02*
X228020000Y-102180000D01*
X221560000Y-102180000D02*
X221590000Y-102180000D01*
X221560000Y-108640000D02*
X221590000Y-108640000D01*
X228020000Y-108640000D02*
X227990000Y-108640000D01*
X212670000Y-102180000D02*
X212670000Y-108640000D01*
X217200000Y-102180000D02*
X214600000Y-102180000D01*
X219130000Y-102180000D02*
X219130000Y-108640000D01*
X217200000Y-108640000D02*
X214600000Y-108640000D01*
X219100000Y-102180000D02*
X219130000Y-102180000D01*
X212670000Y-102180000D02*
X212700000Y-102180000D01*
X212670000Y-108640000D02*
X212700000Y-108640000D01*
X219130000Y-108640000D02*
X219100000Y-108640000D01*
X203780000Y-102180000D02*
X203780000Y-108640000D01*
X208310000Y-102180000D02*
X205710000Y-102180000D01*
X210240000Y-102180000D02*
X210240000Y-108640000D01*
X208310000Y-108640000D02*
X205710000Y-108640000D01*
X210210000Y-102180000D02*
X210240000Y-102180000D01*
X203780000Y-102180000D02*
X203810000Y-102180000D01*
X203780000Y-108640000D02*
X203810000Y-108640000D01*
X210240000Y-108640000D02*
X210210000Y-108640000D01*
X194890000Y-102180000D02*
X194890000Y-108640000D01*
X199420000Y-102180000D02*
X196820000Y-102180000D01*
X201350000Y-102180000D02*
X201350000Y-108640000D01*
X199420000Y-108640000D02*
X196820000Y-108640000D01*
X201320000Y-102180000D02*
X201350000Y-102180000D01*
X194890000Y-102180000D02*
X194920000Y-102180000D01*
X194890000Y-108640000D02*
X194920000Y-108640000D01*
X201350000Y-108640000D02*
X201320000Y-108640000D01*
X186000000Y-102180000D02*
X186000000Y-108640000D01*
X190530000Y-102180000D02*
X187930000Y-102180000D01*
X192460000Y-102180000D02*
X192460000Y-108640000D01*
X190530000Y-108640000D02*
X187930000Y-108640000D01*
X192430000Y-102180000D02*
X192460000Y-102180000D01*
X186000000Y-102180000D02*
X186030000Y-102180000D01*
X186000000Y-108640000D02*
X186030000Y-108640000D01*
X192460000Y-108640000D02*
X192430000Y-108640000D01*
X177110000Y-102180000D02*
X177110000Y-108640000D01*
X181640000Y-102180000D02*
X179040000Y-102180000D01*
X183570000Y-102180000D02*
X183570000Y-108640000D01*
X181640000Y-108640000D02*
X179040000Y-108640000D01*
X183540000Y-102180000D02*
X183570000Y-102180000D01*
X177110000Y-102180000D02*
X177140000Y-102180000D01*
X177110000Y-108640000D02*
X177140000Y-108640000D01*
X183570000Y-108640000D02*
X183540000Y-108640000D01*
X168220000Y-102180000D02*
X168220000Y-108640000D01*
X172750000Y-102180000D02*
X170150000Y-102180000D01*
X174680000Y-102180000D02*
X174680000Y-108640000D01*
X172750000Y-108640000D02*
X170150000Y-108640000D01*
X174650000Y-102180000D02*
X174680000Y-102180000D01*
X168220000Y-102180000D02*
X168250000Y-102180000D01*
X168220000Y-108640000D02*
X168250000Y-108640000D01*
X174680000Y-108640000D02*
X174650000Y-108640000D01*
X230450000Y-90750000D02*
X230450000Y-97210000D01*
X234980000Y-90750000D02*
X232380000Y-90750000D01*
X236910000Y-90750000D02*
X236910000Y-97210000D01*
X234980000Y-97210000D02*
X232380000Y-97210000D01*
X236880000Y-90750000D02*
X236910000Y-90750000D01*
X230450000Y-90750000D02*
X230480000Y-90750000D01*
X230450000Y-97210000D02*
X230480000Y-97210000D01*
X236910000Y-97210000D02*
X236880000Y-97210000D01*
X221560000Y-90750000D02*
X221560000Y-97210000D01*
X226090000Y-90750000D02*
X223490000Y-90750000D01*
X228020000Y-90750000D02*
X228020000Y-97210000D01*
X226090000Y-97210000D02*
X223490000Y-97210000D01*
X227990000Y-90750000D02*
X228020000Y-90750000D01*
X221560000Y-90750000D02*
X221590000Y-90750000D01*
X221560000Y-97210000D02*
X221590000Y-97210000D01*
X228020000Y-97210000D02*
X227990000Y-97210000D01*
X212670000Y-90750000D02*
X212670000Y-97210000D01*
X217200000Y-90750000D02*
X214600000Y-90750000D01*
X219130000Y-90750000D02*
X219130000Y-97210000D01*
X217200000Y-97210000D02*
X214600000Y-97210000D01*
X219100000Y-90750000D02*
X219130000Y-90750000D01*
X212670000Y-90750000D02*
X212700000Y-90750000D01*
X212670000Y-97210000D02*
X212700000Y-97210000D01*
X219130000Y-97210000D02*
X219100000Y-97210000D01*
X203780000Y-90750000D02*
X203780000Y-97210000D01*
X208310000Y-90750000D02*
X205710000Y-90750000D01*
X210240000Y-90750000D02*
X210240000Y-97210000D01*
X208310000Y-97210000D02*
X205710000Y-97210000D01*
X210210000Y-90750000D02*
X210240000Y-90750000D01*
X203780000Y-90750000D02*
X203810000Y-90750000D01*
X203780000Y-97210000D02*
X203810000Y-97210000D01*
X210240000Y-97210000D02*
X210210000Y-97210000D01*
X194890000Y-90750000D02*
X194890000Y-97210000D01*
X199420000Y-90750000D02*
X196820000Y-90750000D01*
X201350000Y-90750000D02*
X201350000Y-97210000D01*
X199420000Y-97210000D02*
X196820000Y-97210000D01*
X201320000Y-90750000D02*
X201350000Y-90750000D01*
X194890000Y-90750000D02*
X194920000Y-90750000D01*
X194890000Y-97210000D02*
X194920000Y-97210000D01*
X201350000Y-97210000D02*
X201320000Y-97210000D01*
X186000000Y-90750000D02*
X186000000Y-97210000D01*
X190530000Y-90750000D02*
X187930000Y-90750000D01*
X192460000Y-90750000D02*
X192460000Y-97210000D01*
X190530000Y-97210000D02*
X187930000Y-97210000D01*
X192430000Y-90750000D02*
X192460000Y-90750000D01*
X186000000Y-90750000D02*
X186030000Y-90750000D01*
X186000000Y-97210000D02*
X186030000Y-97210000D01*
X192460000Y-97210000D02*
X192430000Y-97210000D01*
X177110000Y-90750000D02*
X177110000Y-97210000D01*
X181640000Y-90750000D02*
X179040000Y-90750000D01*
X183570000Y-90750000D02*
X183570000Y-97210000D01*
X181640000Y-97210000D02*
X179040000Y-97210000D01*
X183540000Y-90750000D02*
X183570000Y-90750000D01*
X177110000Y-90750000D02*
X177140000Y-90750000D01*
X177110000Y-97210000D02*
X177140000Y-97210000D01*
X183570000Y-97210000D02*
X183540000Y-97210000D01*
X168220000Y-90750000D02*
X168220000Y-97210000D01*
X172750000Y-90750000D02*
X170150000Y-90750000D01*
X174680000Y-90750000D02*
X174680000Y-97210000D01*
X172750000Y-97210000D02*
X170150000Y-97210000D01*
X174650000Y-90750000D02*
X174680000Y-90750000D01*
X168220000Y-90750000D02*
X168250000Y-90750000D01*
X168220000Y-97210000D02*
X168250000Y-97210000D01*
X174680000Y-97210000D02*
X174650000Y-97210000D01*
X135200000Y-124870000D02*
X135200000Y-131330000D01*
X139730000Y-124870000D02*
X137130000Y-124870000D01*
X141660000Y-124870000D02*
X141660000Y-131330000D01*
X139730000Y-131330000D02*
X137130000Y-131330000D01*
X141630000Y-124870000D02*
X141660000Y-124870000D01*
X135200000Y-124870000D02*
X135230000Y-124870000D01*
X135200000Y-131330000D02*
X135230000Y-131330000D01*
X141660000Y-131330000D02*
X141630000Y-131330000D01*
X126310000Y-125040000D02*
X126310000Y-131500000D01*
X130840000Y-125040000D02*
X128240000Y-125040000D01*
X132770000Y-125040000D02*
X132770000Y-131500000D01*
X130840000Y-131500000D02*
X128240000Y-131500000D01*
X132740000Y-125040000D02*
X132770000Y-125040000D01*
X126310000Y-125040000D02*
X126340000Y-125040000D01*
X126310000Y-131500000D02*
X126340000Y-131500000D01*
X132770000Y-131500000D02*
X132740000Y-131500000D01*
X117420000Y-125040000D02*
X117420000Y-131500000D01*
X121950000Y-125040000D02*
X119350000Y-125040000D01*
X123880000Y-125040000D02*
X123880000Y-131500000D01*
X121950000Y-131500000D02*
X119350000Y-131500000D01*
X123850000Y-125040000D02*
X123880000Y-125040000D01*
X117420000Y-125040000D02*
X117450000Y-125040000D01*
X117420000Y-131500000D02*
X117450000Y-131500000D01*
X123880000Y-131500000D02*
X123850000Y-131500000D01*
X143800000Y-113610000D02*
X143800000Y-120070000D01*
X148330000Y-113610000D02*
X145730000Y-113610000D01*
X150260000Y-113610000D02*
X150260000Y-120070000D01*
X148330000Y-120070000D02*
X145730000Y-120070000D01*
X150230000Y-113610000D02*
X150260000Y-113610000D01*
X143800000Y-113610000D02*
X143830000Y-113610000D01*
X143800000Y-120070000D02*
X143830000Y-120070000D01*
X150260000Y-120070000D02*
X150230000Y-120070000D01*
X135200000Y-113610000D02*
X135200000Y-120070000D01*
X139730000Y-113610000D02*
X137130000Y-113610000D01*
X141660000Y-113610000D02*
X141660000Y-120070000D01*
X139730000Y-120070000D02*
X137130000Y-120070000D01*
X141630000Y-113610000D02*
X141660000Y-113610000D01*
X135200000Y-113610000D02*
X135230000Y-113610000D01*
X135200000Y-120070000D02*
X135230000Y-120070000D01*
X141660000Y-120070000D02*
X141630000Y-120070000D01*
X126310000Y-113610000D02*
X126310000Y-120070000D01*
X130840000Y-113610000D02*
X128240000Y-113610000D01*
X132770000Y-113610000D02*
X132770000Y-120070000D01*
X130840000Y-120070000D02*
X128240000Y-120070000D01*
X132740000Y-113610000D02*
X132770000Y-113610000D01*
X126310000Y-113610000D02*
X126340000Y-113610000D01*
X126310000Y-120070000D02*
X126340000Y-120070000D01*
X132770000Y-120070000D02*
X132740000Y-120070000D01*
X117420000Y-113610000D02*
X117420000Y-120070000D01*
X121950000Y-113610000D02*
X119350000Y-113610000D01*
X123880000Y-113610000D02*
X123880000Y-120070000D01*
X121950000Y-120070000D02*
X119350000Y-120070000D01*
X123850000Y-113610000D02*
X123880000Y-113610000D01*
X117420000Y-113610000D02*
X117450000Y-113610000D01*
X117420000Y-120070000D02*
X117450000Y-120070000D01*
X123880000Y-120070000D02*
X123850000Y-120070000D01*
X143800000Y-102180000D02*
X143800000Y-108640000D01*
X148330000Y-102180000D02*
X145730000Y-102180000D01*
X150260000Y-102180000D02*
X150260000Y-108640000D01*
X148330000Y-108640000D02*
X145730000Y-108640000D01*
X150230000Y-102180000D02*
X150260000Y-102180000D01*
X143800000Y-102180000D02*
X143830000Y-102180000D01*
X143800000Y-108640000D02*
X143830000Y-108640000D01*
X150260000Y-108640000D02*
X150230000Y-108640000D01*
X135200000Y-102180000D02*
X135200000Y-108640000D01*
X139730000Y-102180000D02*
X137130000Y-102180000D01*
X141660000Y-102180000D02*
X141660000Y-108640000D01*
X139730000Y-108640000D02*
X137130000Y-108640000D01*
X141630000Y-102180000D02*
X141660000Y-102180000D01*
X135200000Y-102180000D02*
X135230000Y-102180000D01*
X135200000Y-108640000D02*
X135230000Y-108640000D01*
X141660000Y-108640000D02*
X141630000Y-108640000D01*
X126310000Y-102180000D02*
X126310000Y-108640000D01*
X130840000Y-102180000D02*
X128240000Y-102180000D01*
X132770000Y-102180000D02*
X132770000Y-108640000D01*
X130840000Y-108640000D02*
X128240000Y-108640000D01*
X132740000Y-102180000D02*
X132770000Y-102180000D01*
X126310000Y-102180000D02*
X126340000Y-102180000D01*
X126310000Y-108640000D02*
X126340000Y-108640000D01*
X132770000Y-108640000D02*
X132740000Y-108640000D01*
X117420000Y-102180000D02*
X117420000Y-108640000D01*
X121950000Y-102180000D02*
X119350000Y-102180000D01*
X123880000Y-102180000D02*
X123880000Y-108640000D01*
X121950000Y-108640000D02*
X119350000Y-108640000D01*
X123850000Y-102180000D02*
X123880000Y-102180000D01*
X117420000Y-102180000D02*
X117450000Y-102180000D01*
X117420000Y-108640000D02*
X117450000Y-108640000D01*
X123880000Y-108640000D02*
X123850000Y-108640000D01*
X143745000Y-90580000D02*
X143745000Y-97040000D01*
X148275000Y-90580000D02*
X145675000Y-90580000D01*
X150205000Y-90580000D02*
X150205000Y-97040000D01*
X148275000Y-97040000D02*
X145675000Y-97040000D01*
X150175000Y-90580000D02*
X150205000Y-90580000D01*
X143745000Y-90580000D02*
X143775000Y-90580000D01*
X143745000Y-97040000D02*
X143775000Y-97040000D01*
X150205000Y-97040000D02*
X150175000Y-97040000D01*
X135200000Y-90750000D02*
X135200000Y-97210000D01*
X139730000Y-90750000D02*
X137130000Y-90750000D01*
X141660000Y-90750000D02*
X141660000Y-97210000D01*
X139730000Y-97210000D02*
X137130000Y-97210000D01*
X141630000Y-90750000D02*
X141660000Y-90750000D01*
X135200000Y-90750000D02*
X135230000Y-90750000D01*
X135200000Y-97210000D02*
X135230000Y-97210000D01*
X141660000Y-97210000D02*
X141630000Y-97210000D01*
X126310000Y-90750000D02*
X126310000Y-97210000D01*
X130840000Y-90750000D02*
X128240000Y-90750000D01*
X132770000Y-90750000D02*
X132770000Y-97210000D01*
X130840000Y-97210000D02*
X128240000Y-97210000D01*
X132740000Y-90750000D02*
X132770000Y-90750000D01*
X126310000Y-90750000D02*
X126340000Y-90750000D01*
X126310000Y-97210000D02*
X126340000Y-97210000D01*
X132770000Y-97210000D02*
X132740000Y-97210000D01*
X117420000Y-90750000D02*
X117420000Y-97210000D01*
X121950000Y-90750000D02*
X119350000Y-90750000D01*
X123880000Y-90750000D02*
X123880000Y-97210000D01*
X121950000Y-97210000D02*
X119350000Y-97210000D01*
X123850000Y-90750000D02*
X123880000Y-90750000D01*
X117420000Y-90750000D02*
X117450000Y-90750000D01*
X117420000Y-97210000D02*
X117450000Y-97210000D01*
X123880000Y-97210000D02*
X123850000Y-97210000D01*
X143800000Y-125040000D02*
X143800000Y-131500000D01*
X148330000Y-125040000D02*
X145730000Y-125040000D01*
X150260000Y-125040000D02*
X150260000Y-131500000D01*
X148330000Y-131500000D02*
X145730000Y-131500000D01*
X150230000Y-125040000D02*
X150260000Y-125040000D01*
X143800000Y-125040000D02*
X143830000Y-125040000D01*
X143800000Y-131500000D02*
X143830000Y-131500000D01*
X150260000Y-131500000D02*
X150230000Y-131500000D01*
X72970000Y-113610000D02*
X72970000Y-120070000D01*
X77500000Y-113610000D02*
X74900000Y-113610000D01*
X79430000Y-113610000D02*
X79430000Y-120070000D01*
X77500000Y-120070000D02*
X74900000Y-120070000D01*
X79400000Y-113610000D02*
X79430000Y-113610000D01*
X72970000Y-113610000D02*
X73000000Y-113610000D01*
X72970000Y-120070000D02*
X73000000Y-120070000D01*
X79430000Y-120070000D02*
X79400000Y-120070000D01*
X90115000Y-102180000D02*
X90115000Y-108640000D01*
X94645000Y-102180000D02*
X92045000Y-102180000D01*
X96575000Y-102180000D02*
X96575000Y-108640000D01*
X94645000Y-108640000D02*
X92045000Y-108640000D01*
X96545000Y-102180000D02*
X96575000Y-102180000D01*
X90115000Y-102180000D02*
X90145000Y-102180000D01*
X90115000Y-108640000D02*
X90145000Y-108640000D01*
X96575000Y-108640000D02*
X96545000Y-108640000D01*
X81515000Y-102180000D02*
X81515000Y-108640000D01*
X86045000Y-102180000D02*
X83445000Y-102180000D01*
X87975000Y-102180000D02*
X87975000Y-108640000D01*
X86045000Y-108640000D02*
X83445000Y-108640000D01*
X87945000Y-102180000D02*
X87975000Y-102180000D01*
X81515000Y-102180000D02*
X81545000Y-102180000D01*
X81515000Y-108640000D02*
X81545000Y-108640000D01*
X87975000Y-108640000D02*
X87945000Y-108640000D01*
X72970000Y-102180000D02*
X72970000Y-108640000D01*
X77500000Y-102180000D02*
X74900000Y-102180000D01*
X79430000Y-102180000D02*
X79430000Y-108640000D01*
X77500000Y-108640000D02*
X74900000Y-108640000D01*
X79400000Y-102180000D02*
X79430000Y-102180000D01*
X72970000Y-102180000D02*
X73000000Y-102180000D01*
X72970000Y-108640000D02*
X73000000Y-108640000D01*
X79430000Y-108640000D02*
X79400000Y-108640000D01*
X90115000Y-90750000D02*
X90115000Y-97210000D01*
X94645000Y-90750000D02*
X92045000Y-90750000D01*
X96575000Y-90750000D02*
X96575000Y-97210000D01*
X94645000Y-97210000D02*
X92045000Y-97210000D01*
X96545000Y-90750000D02*
X96575000Y-90750000D01*
X90115000Y-90750000D02*
X90145000Y-90750000D01*
X90115000Y-97210000D02*
X90145000Y-97210000D01*
X96575000Y-97210000D02*
X96545000Y-97210000D01*
X81570000Y-90750000D02*
X81570000Y-97210000D01*
X86100000Y-90750000D02*
X83500000Y-90750000D01*
X88030000Y-90750000D02*
X88030000Y-97210000D01*
X86100000Y-97210000D02*
X83500000Y-97210000D01*
X88000000Y-90750000D02*
X88030000Y-90750000D01*
X81570000Y-90750000D02*
X81600000Y-90750000D01*
X81570000Y-97210000D02*
X81600000Y-97210000D01*
X88030000Y-97210000D02*
X88000000Y-97210000D01*
X72970000Y-90750000D02*
X72970000Y-97210000D01*
X77500000Y-90750000D02*
X74900000Y-90750000D01*
X79430000Y-90750000D02*
X79430000Y-97210000D01*
X77500000Y-97210000D02*
X74900000Y-97210000D01*
X79400000Y-90750000D02*
X79430000Y-90750000D01*
X72970000Y-90750000D02*
X73000000Y-90750000D01*
X72970000Y-97210000D02*
X73000000Y-97210000D01*
X79430000Y-97210000D02*
X79400000Y-97210000D01*
X99005000Y-113610000D02*
X99005000Y-120070000D01*
X103535000Y-113610000D02*
X100935000Y-113610000D01*
X105465000Y-113610000D02*
X105465000Y-120070000D01*
X103535000Y-120070000D02*
X100935000Y-120070000D01*
X105435000Y-113610000D02*
X105465000Y-113610000D01*
X99005000Y-113610000D02*
X99035000Y-113610000D01*
X99005000Y-120070000D02*
X99035000Y-120070000D01*
X105465000Y-120070000D02*
X105435000Y-120070000D01*
X39950000Y-116150000D02*
X39950000Y-122610000D01*
X44480000Y-116150000D02*
X41880000Y-116150000D01*
X46410000Y-116150000D02*
X46410000Y-122610000D01*
X44480000Y-122610000D02*
X41880000Y-122610000D01*
X46380000Y-116150000D02*
X46410000Y-116150000D01*
X39950000Y-116150000D02*
X39980000Y-116150000D01*
X39950000Y-122610000D02*
X39980000Y-122610000D01*
X46410000Y-122610000D02*
X46380000Y-122610000D01*
X31060000Y-116150000D02*
X31060000Y-122610000D01*
X35590000Y-116150000D02*
X32990000Y-116150000D01*
X37520000Y-116150000D02*
X37520000Y-122610000D01*
X35590000Y-122610000D02*
X32990000Y-122610000D01*
X37490000Y-116150000D02*
X37520000Y-116150000D01*
X31060000Y-116150000D02*
X31090000Y-116150000D01*
X31060000Y-122610000D02*
X31090000Y-122610000D01*
X37520000Y-122610000D02*
X37490000Y-122610000D01*
X22170000Y-116150000D02*
X22170000Y-122610000D01*
X26700000Y-116150000D02*
X24100000Y-116150000D01*
X28630000Y-116150000D02*
X28630000Y-122610000D01*
X26700000Y-122610000D02*
X24100000Y-122610000D01*
X28600000Y-116150000D02*
X28630000Y-116150000D01*
X22170000Y-116150000D02*
X22200000Y-116150000D01*
X22170000Y-122610000D02*
X22200000Y-122610000D01*
X28630000Y-122610000D02*
X28600000Y-122610000D01*
X48840000Y-104720000D02*
X48840000Y-111180000D01*
X53370000Y-104720000D02*
X50770000Y-104720000D01*
X55300000Y-104720000D02*
X55300000Y-111180000D01*
X53370000Y-111180000D02*
X50770000Y-111180000D01*
X55270000Y-104720000D02*
X55300000Y-104720000D01*
X48840000Y-104720000D02*
X48870000Y-104720000D01*
X48840000Y-111180000D02*
X48870000Y-111180000D01*
X55300000Y-111180000D02*
X55270000Y-111180000D01*
X39950000Y-104720000D02*
X39950000Y-111180000D01*
X44480000Y-104720000D02*
X41880000Y-104720000D01*
X46410000Y-104720000D02*
X46410000Y-111180000D01*
X44480000Y-111180000D02*
X41880000Y-111180000D01*
X46380000Y-104720000D02*
X46410000Y-104720000D01*
X39950000Y-104720000D02*
X39980000Y-104720000D01*
X39950000Y-111180000D02*
X39980000Y-111180000D01*
X46410000Y-111180000D02*
X46380000Y-111180000D01*
X31060000Y-104720000D02*
X31060000Y-111180000D01*
X35590000Y-104720000D02*
X32990000Y-104720000D01*
X37520000Y-104720000D02*
X37520000Y-111180000D01*
X35590000Y-111180000D02*
X32990000Y-111180000D01*
X37490000Y-104720000D02*
X37520000Y-104720000D01*
X31060000Y-104720000D02*
X31090000Y-104720000D01*
X31060000Y-111180000D02*
X31090000Y-111180000D01*
X37520000Y-111180000D02*
X37490000Y-111180000D01*
X22170000Y-104720000D02*
X22170000Y-111180000D01*
X26700000Y-104720000D02*
X24100000Y-104720000D01*
X28630000Y-104720000D02*
X28630000Y-111180000D01*
X26700000Y-111180000D02*
X24100000Y-111180000D01*
X28600000Y-104720000D02*
X28630000Y-104720000D01*
X22170000Y-104720000D02*
X22200000Y-104720000D01*
X22170000Y-111180000D02*
X22200000Y-111180000D01*
X28630000Y-111180000D02*
X28600000Y-111180000D01*
X48840000Y-116150000D02*
X48840000Y-122610000D01*
X53370000Y-116150000D02*
X50770000Y-116150000D01*
X55300000Y-116150000D02*
X55300000Y-122610000D01*
X53370000Y-122610000D02*
X50770000Y-122610000D01*
X55270000Y-116150000D02*
X55300000Y-116150000D01*
X48840000Y-116150000D02*
X48870000Y-116150000D01*
X48840000Y-122610000D02*
X48870000Y-122610000D01*
X55300000Y-122610000D02*
X55270000Y-122610000D01*
X57730000Y-104720000D02*
X57730000Y-111180000D01*
X62260000Y-104720000D02*
X59660000Y-104720000D01*
X64190000Y-104720000D02*
X64190000Y-111180000D01*
X62260000Y-111180000D02*
X59660000Y-111180000D01*
X64160000Y-104720000D02*
X64190000Y-104720000D01*
X57730000Y-104720000D02*
X57760000Y-104720000D01*
X57730000Y-111180000D02*
X57760000Y-111180000D01*
X64190000Y-111180000D02*
X64160000Y-111180000D01*
X41220000Y-90750000D02*
X41220000Y-97210000D01*
X45750000Y-90750000D02*
X43150000Y-90750000D01*
X47680000Y-90750000D02*
X47680000Y-97210000D01*
X45750000Y-97210000D02*
X43150000Y-97210000D01*
X47650000Y-90750000D02*
X47680000Y-90750000D01*
X41220000Y-90750000D02*
X41250000Y-90750000D01*
X41220000Y-97210000D02*
X41250000Y-97210000D01*
X47680000Y-97210000D02*
X47650000Y-97210000D01*
X153270000Y-90750000D02*
X153270000Y-97210000D01*
X157800000Y-90750000D02*
X155200000Y-90750000D01*
X159730000Y-90750000D02*
X159730000Y-97210000D01*
X157800000Y-97210000D02*
X155200000Y-97210000D01*
X159700000Y-90750000D02*
X159730000Y-90750000D01*
X153270000Y-90750000D02*
X153300000Y-90750000D01*
X153270000Y-97210000D02*
X153300000Y-97210000D01*
X159730000Y-97210000D02*
X159700000Y-97210000D01*
X99005000Y-90750000D02*
X99005000Y-97210000D01*
X103535000Y-90750000D02*
X100935000Y-90750000D01*
X105465000Y-90750000D02*
X105465000Y-97210000D01*
X103535000Y-97210000D02*
X100935000Y-97210000D01*
X105435000Y-90750000D02*
X105465000Y-90750000D01*
X99005000Y-90750000D02*
X99035000Y-90750000D01*
X99005000Y-97210000D02*
X99035000Y-97210000D01*
X105465000Y-97210000D02*
X105435000Y-97210000D01*
X90115000Y-113610000D02*
X90115000Y-120070000D01*
X94645000Y-113610000D02*
X92045000Y-113610000D01*
X96575000Y-113610000D02*
X96575000Y-120070000D01*
X94645000Y-120070000D02*
X92045000Y-120070000D01*
X96545000Y-113610000D02*
X96575000Y-113610000D01*
X90115000Y-113610000D02*
X90145000Y-113610000D01*
X90115000Y-120070000D02*
X90145000Y-120070000D01*
X96575000Y-120070000D02*
X96545000Y-120070000D01*
X81515000Y-113610000D02*
X81515000Y-120070000D01*
X86045000Y-113610000D02*
X83445000Y-113610000D01*
X87975000Y-113610000D02*
X87975000Y-120070000D01*
X86045000Y-120070000D02*
X83445000Y-120070000D01*
X87945000Y-113610000D02*
X87975000Y-113610000D01*
X81515000Y-113610000D02*
X81545000Y-113610000D01*
X81515000Y-120070000D02*
X81545000Y-120070000D01*
X87975000Y-120070000D02*
X87945000Y-120070000D01*
X22170000Y-90750000D02*
X22170000Y-97210000D01*
X26700000Y-90750000D02*
X24100000Y-90750000D01*
X28630000Y-90750000D02*
X28630000Y-97210000D01*
X26700000Y-97210000D02*
X24100000Y-97210000D01*
X28600000Y-90750000D02*
X28630000Y-90750000D01*
X22170000Y-90750000D02*
X22200000Y-90750000D01*
X22170000Y-97210000D02*
X22200000Y-97210000D01*
X28630000Y-97210000D02*
X28600000Y-97210000D01*
X31060000Y-90750000D02*
X31060000Y-97210000D01*
X35590000Y-90750000D02*
X32990000Y-90750000D01*
X37520000Y-90750000D02*
X37520000Y-97210000D01*
X35590000Y-97210000D02*
X32990000Y-97210000D01*
X37490000Y-90750000D02*
X37520000Y-90750000D01*
X31060000Y-90750000D02*
X31090000Y-90750000D01*
X31060000Y-97210000D02*
X31090000Y-97210000D01*
X37520000Y-97210000D02*
X37490000Y-97210000D01*
X104200000Y-74930000D02*
X104200000Y-76260000D01*
X104200000Y-76260000D02*
X102870000Y-76260000D01*
X101600000Y-76260000D02*
X53280000Y-76260000D01*
X53280000Y-73600000D02*
X53280000Y-76260000D01*
X101600000Y-73600000D02*
X53280000Y-73600000D01*
X101600000Y-73600000D02*
X101600000Y-76260000D01*
X189665000Y-24910000D02*
X189665000Y-20810000D01*
X182090000Y-20630000D02*
X178590000Y-20630000D01*
X182090000Y-25090000D02*
X178590000Y-25090000D01*
X191260000Y-50860000D02*
X192550000Y-50860000D01*
X177040000Y-37340000D02*
X177040000Y-38040000D01*
X177740000Y-37340000D02*
X177040000Y-37340000D01*
X191260000Y-37340000D02*
X191260000Y-38040000D01*
X190560000Y-37340000D02*
X191260000Y-37340000D01*
X177040000Y-51560000D02*
X177040000Y-50860000D01*
X177740000Y-51560000D02*
X177040000Y-51560000D01*
X191260000Y-51560000D02*
X191260000Y-50860000D01*
X190560000Y-51560000D02*
X191260000Y-51560000D01*
X182717221Y-29720000D02*
X183042779Y-29720000D01*
X182717221Y-28700000D02*
X183042779Y-28700000D01*
X186180000Y-27777221D02*
X186180000Y-28102779D01*
X187200000Y-27777221D02*
X187200000Y-28102779D01*
X246580000Y-22860000D02*
X245310000Y-22860000D01*
X246580000Y-20320000D02*
X246580000Y-22860000D01*
X210820000Y-20320000D02*
X233680000Y-20320000D01*
X210820000Y-22860000D02*
X212090000Y-22860000D01*
X210820000Y-20320000D02*
X210820000Y-22860000D01*
X245310000Y-67310000D02*
X245310000Y-54610000D01*
X246570500Y-67310000D02*
X245310000Y-67310000D01*
X246570500Y-69850000D02*
X246570500Y-67310000D01*
X210820000Y-69850000D02*
X233680000Y-69850000D01*
X210820000Y-67310000D02*
X210820000Y-69850000D01*
X212090000Y-67310000D02*
X210820000Y-67310000D01*
X212090000Y-67310000D02*
X212090000Y-54610000D01*
X245310000Y-22860000D02*
X245310000Y-35560000D01*
X210820000Y-54610000D02*
X212090000Y-54610000D01*
X210820000Y-35560000D02*
X210820000Y-54610000D01*
X212090000Y-35560000D02*
X210820000Y-35560000D01*
X212090000Y-22860000D02*
X212090000Y-35560000D01*
X246580000Y-35560000D02*
X245310000Y-35560000D01*
X246580000Y-54610000D02*
X246580000Y-35560000D01*
X245310000Y-54610000D02*
X246580000Y-54610000D01*
X222504000Y-43180000D02*
X222504000Y-20320000D01*
X221996000Y-43180000D02*
X222504000Y-43180000D01*
X221996000Y-20320000D02*
X221996000Y-43180000D01*
X222504000Y-46990000D02*
X222504000Y-69850000D01*
X221996000Y-46990000D02*
X222504000Y-46990000D01*
X221996000Y-69850000D02*
X221996000Y-46990000D01*
X213360000Y-35560000D02*
X214630000Y-35560000D01*
X213360000Y-53340000D02*
X213360000Y-35560000D01*
X214630000Y-53340000D02*
X213360000Y-53340000D01*
X214630000Y-54610000D02*
X214630000Y-53340000D01*
X217170000Y-54610000D02*
X214630000Y-54610000D01*
X217170000Y-53340000D02*
X217170000Y-54610000D01*
X218440000Y-53340000D02*
X217170000Y-53340000D01*
X218440000Y-35560000D02*
X218440000Y-53340000D01*
X214630000Y-35560000D02*
X218440000Y-35560000D01*
X231140000Y-36830000D02*
X231140000Y-54610000D01*
X229870000Y-36830000D02*
X231140000Y-36830000D01*
X229870000Y-35560000D02*
X229870000Y-36830000D01*
X227330000Y-35560000D02*
X229870000Y-35560000D01*
X227330000Y-36830000D02*
X227330000Y-35560000D01*
X226060000Y-36830000D02*
X227330000Y-36830000D01*
X226060000Y-54610000D02*
X226060000Y-36830000D01*
X231140000Y-54610000D02*
X226060000Y-54610000D01*
X233680000Y-20320000D02*
X246580000Y-20320000D01*
X233680000Y-69850000D02*
X246570500Y-69850000D01*
X214630000Y-35560000D02*
X218440000Y-35560000D01*
X218440000Y-35560000D02*
X218440000Y-53340000D01*
X218440000Y-53340000D02*
X217170000Y-53340000D01*
X217170000Y-53340000D02*
X217170000Y-54610000D01*
X217170000Y-54610000D02*
X214630000Y-54610000D01*
X214630000Y-54610000D02*
X214630000Y-53340000D01*
X214630000Y-53340000D02*
X213360000Y-53340000D01*
X213360000Y-53340000D02*
X213360000Y-35560000D01*
X213360000Y-35560000D02*
X214630000Y-35560000D01*
X236855000Y-35814000D02*
X238125000Y-35814000D01*
X236855000Y-53594000D02*
X236855000Y-35814000D01*
X238125000Y-53594000D02*
X236855000Y-53594000D01*
X238125000Y-54864000D02*
X238125000Y-53594000D01*
X240665000Y-54864000D02*
X238125000Y-54864000D01*
X240665000Y-53594000D02*
X240665000Y-54864000D01*
X241935000Y-53594000D02*
X240665000Y-53594000D01*
X241935000Y-35814000D02*
X241935000Y-53594000D01*
X238125000Y-35814000D02*
X241935000Y-35814000D01*
X238125000Y-35814000D02*
X241935000Y-35814000D01*
X241935000Y-35814000D02*
X241935000Y-53594000D01*
X241935000Y-53594000D02*
X240665000Y-53594000D01*
X240665000Y-53594000D02*
X240665000Y-54864000D01*
X240665000Y-54864000D02*
X238125000Y-54864000D01*
X238125000Y-54864000D02*
X238125000Y-53594000D01*
X238125000Y-53594000D02*
X236855000Y-53594000D01*
X236855000Y-53594000D02*
X236855000Y-35814000D01*
X236855000Y-35814000D02*
X238125000Y-35814000D01*
X233426000Y-69850000D02*
X233426000Y-46990000D01*
X233426000Y-46990000D02*
X233934000Y-46990000D01*
X233934000Y-46990000D02*
X233934000Y-69850000D01*
X233426000Y-20320000D02*
X233426000Y-43180000D01*
X233426000Y-43180000D02*
X233934000Y-43180000D01*
X233934000Y-43180000D02*
X233934000Y-20320000D01*
X209850000Y-18080000D02*
X209850000Y-71280000D01*
X209850000Y-71280000D02*
X247550000Y-71280000D01*
X247550000Y-71280000D02*
X247550000Y-18080000D01*
X247550000Y-18080000D02*
X209850000Y-18080000D01*
D11*
X210546666Y-83284761D02*
X210689523Y-83332380D01*
X210927619Y-83332380D01*
X211022857Y-83284761D01*
X211070476Y-83237142D01*
X211118095Y-83141904D01*
X211118095Y-83046666D01*
X211070476Y-82951428D01*
X211022857Y-82903809D01*
X210927619Y-82856190D01*
X210737142Y-82808571D01*
X210641904Y-82760952D01*
X210594285Y-82713333D01*
X210546666Y-82618095D01*
X210546666Y-82522857D01*
X210594285Y-82427619D01*
X210641904Y-82380000D01*
X210737142Y-82332380D01*
X210975238Y-82332380D01*
X211118095Y-82380000D01*
X211451428Y-82332380D02*
X211689523Y-83332380D01*
X211880000Y-82618095D01*
X212070476Y-83332380D01*
X212308571Y-82332380D01*
X213213333Y-83332380D02*
X212641904Y-83332380D01*
X212927619Y-83332380D02*
X212927619Y-82332380D01*
X212832380Y-82475238D01*
X212737142Y-82570476D01*
X212641904Y-82618095D01*
X56492380Y-78906666D02*
X56016190Y-79240000D01*
X56492380Y-79478095D02*
X55492380Y-79478095D01*
X55492380Y-79097142D01*
X55540000Y-79001904D01*
X55587619Y-78954285D01*
X55682857Y-78906666D01*
X55825714Y-78906666D01*
X55920952Y-78954285D01*
X55968571Y-79001904D01*
X56016190Y-79097142D01*
X56016190Y-79478095D01*
X55825714Y-78049523D02*
X56492380Y-78049523D01*
X55444761Y-78287619D02*
X56159047Y-78525714D01*
X56159047Y-77906666D01*
X59032380Y-82716666D02*
X58556190Y-83050000D01*
X59032380Y-83288095D02*
X58032380Y-83288095D01*
X58032380Y-82907142D01*
X58080000Y-82811904D01*
X58127619Y-82764285D01*
X58222857Y-82716666D01*
X58365714Y-82716666D01*
X58460952Y-82764285D01*
X58508571Y-82811904D01*
X58556190Y-82907142D01*
X58556190Y-83288095D01*
X58032380Y-82383333D02*
X58032380Y-81764285D01*
X58413333Y-82097619D01*
X58413333Y-81954761D01*
X58460952Y-81859523D01*
X58508571Y-81811904D01*
X58603809Y-81764285D01*
X58841904Y-81764285D01*
X58937142Y-81811904D01*
X58984761Y-81859523D01*
X59032380Y-81954761D01*
X59032380Y-82240476D01*
X58984761Y-82335714D01*
X58937142Y-82383333D01*
X56172380Y-78906666D02*
X55696190Y-79240000D01*
X56172380Y-79478095D02*
X55172380Y-79478095D01*
X55172380Y-79097142D01*
X55220000Y-79001904D01*
X55267619Y-78954285D01*
X55362857Y-78906666D01*
X55505714Y-78906666D01*
X55600952Y-78954285D01*
X55648571Y-79001904D01*
X55696190Y-79097142D01*
X55696190Y-79478095D01*
X55267619Y-78525714D02*
X55220000Y-78478095D01*
X55172380Y-78382857D01*
X55172380Y-78144761D01*
X55220000Y-78049523D01*
X55267619Y-78001904D01*
X55362857Y-77954285D01*
X55458095Y-77954285D01*
X55600952Y-78001904D01*
X56172380Y-78573333D01*
X56172380Y-77954285D01*
X101433333Y-77667142D02*
X101385714Y-77714761D01*
X101242857Y-77762380D01*
X101147619Y-77762380D01*
X101004761Y-77714761D01*
X100909523Y-77619523D01*
X100861904Y-77524285D01*
X100814285Y-77333809D01*
X100814285Y-77190952D01*
X100861904Y-77000476D01*
X100909523Y-76905238D01*
X101004761Y-76810000D01*
X101147619Y-76762380D01*
X101242857Y-76762380D01*
X101385714Y-76810000D01*
X101433333Y-76857619D01*
X102290476Y-76762380D02*
X102100000Y-76762380D01*
X102004761Y-76810000D01*
X101957142Y-76857619D01*
X101861904Y-77000476D01*
X101814285Y-77190952D01*
X101814285Y-77571904D01*
X101861904Y-77667142D01*
X101909523Y-77714761D01*
X102004761Y-77762380D01*
X102195238Y-77762380D01*
X102290476Y-77714761D01*
X102338095Y-77667142D01*
X102385714Y-77571904D01*
X102385714Y-77333809D01*
X102338095Y-77238571D01*
X102290476Y-77190952D01*
X102195238Y-77143333D01*
X102004761Y-77143333D01*
X101909523Y-77190952D01*
X101861904Y-77238571D01*
X101814285Y-77333809D01*
X101433333Y-85607142D02*
X101385714Y-85654761D01*
X101242857Y-85702380D01*
X101147619Y-85702380D01*
X101004761Y-85654761D01*
X100909523Y-85559523D01*
X100861904Y-85464285D01*
X100814285Y-85273809D01*
X100814285Y-85130952D01*
X100861904Y-84940476D01*
X100909523Y-84845238D01*
X101004761Y-84750000D01*
X101147619Y-84702380D01*
X101242857Y-84702380D01*
X101385714Y-84750000D01*
X101433333Y-84797619D01*
X102338095Y-84702380D02*
X101861904Y-84702380D01*
X101814285Y-85178571D01*
X101861904Y-85130952D01*
X101957142Y-85083333D01*
X102195238Y-85083333D01*
X102290476Y-85130952D01*
X102338095Y-85178571D01*
X102385714Y-85273809D01*
X102385714Y-85511904D01*
X102338095Y-85607142D01*
X102290476Y-85654761D01*
X102195238Y-85702380D01*
X101957142Y-85702380D01*
X101861904Y-85654761D01*
X101814285Y-85607142D01*
X192873333Y-26867142D02*
X192825714Y-26914761D01*
X192682857Y-26962380D01*
X192587619Y-26962380D01*
X192444761Y-26914761D01*
X192349523Y-26819523D01*
X192301904Y-26724285D01*
X192254285Y-26533809D01*
X192254285Y-26390952D01*
X192301904Y-26200476D01*
X192349523Y-26105238D01*
X192444761Y-26010000D01*
X192587619Y-25962380D01*
X192682857Y-25962380D01*
X192825714Y-26010000D01*
X192873333Y-26057619D01*
X193730476Y-26295714D02*
X193730476Y-26962380D01*
X193492380Y-25914761D02*
X193254285Y-26629047D01*
X193873333Y-26629047D01*
X193332380Y-31916666D02*
X192856190Y-32250000D01*
X193332380Y-32488095D02*
X192332380Y-32488095D01*
X192332380Y-32107142D01*
X192380000Y-32011904D01*
X192427619Y-31964285D01*
X192522857Y-31916666D01*
X192665714Y-31916666D01*
X192760952Y-31964285D01*
X192808571Y-32011904D01*
X192856190Y-32107142D01*
X192856190Y-32488095D01*
X193332380Y-30964285D02*
X193332380Y-31535714D01*
X193332380Y-31250000D02*
X192332380Y-31250000D01*
X192475238Y-31345238D01*
X192570476Y-31440476D01*
X192618095Y-31535714D01*
X201596666Y-33488380D02*
X201596666Y-34202666D01*
X201549047Y-34345523D01*
X201453809Y-34440761D01*
X201310952Y-34488380D01*
X201215714Y-34488380D01*
X202025238Y-33583619D02*
X202072857Y-33536000D01*
X202168095Y-33488380D01*
X202406190Y-33488380D01*
X202501428Y-33536000D01*
X202549047Y-33583619D01*
X202596666Y-33678857D01*
X202596666Y-33774095D01*
X202549047Y-33916952D01*
X201977619Y-34488380D01*
X202596666Y-34488380D01*
X192873333Y-24327142D02*
X192825714Y-24374761D01*
X192682857Y-24422380D01*
X192587619Y-24422380D01*
X192444761Y-24374761D01*
X192349523Y-24279523D01*
X192301904Y-24184285D01*
X192254285Y-23993809D01*
X192254285Y-23850952D01*
X192301904Y-23660476D01*
X192349523Y-23565238D01*
X192444761Y-23470000D01*
X192587619Y-23422380D01*
X192682857Y-23422380D01*
X192825714Y-23470000D01*
X192873333Y-23517619D01*
X193206666Y-23422380D02*
X193825714Y-23422380D01*
X193492380Y-23803333D01*
X193635238Y-23803333D01*
X193730476Y-23850952D01*
X193778095Y-23898571D01*
X193825714Y-23993809D01*
X193825714Y-24231904D01*
X193778095Y-24327142D01*
X193730476Y-24374761D01*
X193635238Y-24422380D01*
X193349523Y-24422380D01*
X193254285Y-24374761D01*
X193206666Y-24327142D01*
X238134761Y-118649523D02*
X238182380Y-118506666D01*
X238182380Y-118268571D01*
X238134761Y-118173333D01*
X238087142Y-118125714D01*
X237991904Y-118078095D01*
X237896666Y-118078095D01*
X237801428Y-118125714D01*
X237753809Y-118173333D01*
X237706190Y-118268571D01*
X237658571Y-118459047D01*
X237610952Y-118554285D01*
X237563333Y-118601904D01*
X237468095Y-118649523D01*
X237372857Y-118649523D01*
X237277619Y-118601904D01*
X237230000Y-118554285D01*
X237182380Y-118459047D01*
X237182380Y-118220952D01*
X237230000Y-118078095D01*
X237182380Y-117744761D02*
X238182380Y-117506666D01*
X237468095Y-117316190D01*
X238182380Y-117125714D01*
X237182380Y-116887619D01*
X237182380Y-116601904D02*
X237182380Y-115935238D01*
X238182380Y-116363809D01*
X237182380Y-115649523D02*
X237182380Y-114982857D01*
X238182380Y-115411428D01*
X229244761Y-118649523D02*
X229292380Y-118506666D01*
X229292380Y-118268571D01*
X229244761Y-118173333D01*
X229197142Y-118125714D01*
X229101904Y-118078095D01*
X229006666Y-118078095D01*
X228911428Y-118125714D01*
X228863809Y-118173333D01*
X228816190Y-118268571D01*
X228768571Y-118459047D01*
X228720952Y-118554285D01*
X228673333Y-118601904D01*
X228578095Y-118649523D01*
X228482857Y-118649523D01*
X228387619Y-118601904D01*
X228340000Y-118554285D01*
X228292380Y-118459047D01*
X228292380Y-118220952D01*
X228340000Y-118078095D01*
X228292380Y-117744761D02*
X229292380Y-117506666D01*
X228578095Y-117316190D01*
X229292380Y-117125714D01*
X228292380Y-116887619D01*
X228292380Y-116601904D02*
X228292380Y-115935238D01*
X229292380Y-116363809D01*
X228292380Y-115125714D02*
X228292380Y-115316190D01*
X228340000Y-115411428D01*
X228387619Y-115459047D01*
X228530476Y-115554285D01*
X228720952Y-115601904D01*
X229101904Y-115601904D01*
X229197142Y-115554285D01*
X229244761Y-115506666D01*
X229292380Y-115411428D01*
X229292380Y-115220952D01*
X229244761Y-115125714D01*
X229197142Y-115078095D01*
X229101904Y-115030476D01*
X228863809Y-115030476D01*
X228768571Y-115078095D01*
X228720952Y-115125714D01*
X228673333Y-115220952D01*
X228673333Y-115411428D01*
X228720952Y-115506666D01*
X228768571Y-115554285D01*
X228863809Y-115601904D01*
X220354761Y-118649523D02*
X220402380Y-118506666D01*
X220402380Y-118268571D01*
X220354761Y-118173333D01*
X220307142Y-118125714D01*
X220211904Y-118078095D01*
X220116666Y-118078095D01*
X220021428Y-118125714D01*
X219973809Y-118173333D01*
X219926190Y-118268571D01*
X219878571Y-118459047D01*
X219830952Y-118554285D01*
X219783333Y-118601904D01*
X219688095Y-118649523D01*
X219592857Y-118649523D01*
X219497619Y-118601904D01*
X219450000Y-118554285D01*
X219402380Y-118459047D01*
X219402380Y-118220952D01*
X219450000Y-118078095D01*
X219402380Y-117744761D02*
X220402380Y-117506666D01*
X219688095Y-117316190D01*
X220402380Y-117125714D01*
X219402380Y-116887619D01*
X219402380Y-116601904D02*
X219402380Y-115935238D01*
X220402380Y-116363809D01*
X219402380Y-115078095D02*
X219402380Y-115554285D01*
X219878571Y-115601904D01*
X219830952Y-115554285D01*
X219783333Y-115459047D01*
X219783333Y-115220952D01*
X219830952Y-115125714D01*
X219878571Y-115078095D01*
X219973809Y-115030476D01*
X220211904Y-115030476D01*
X220307142Y-115078095D01*
X220354761Y-115125714D01*
X220402380Y-115220952D01*
X220402380Y-115459047D01*
X220354761Y-115554285D01*
X220307142Y-115601904D01*
X211464761Y-118649523D02*
X211512380Y-118506666D01*
X211512380Y-118268571D01*
X211464761Y-118173333D01*
X211417142Y-118125714D01*
X211321904Y-118078095D01*
X211226666Y-118078095D01*
X211131428Y-118125714D01*
X211083809Y-118173333D01*
X211036190Y-118268571D01*
X210988571Y-118459047D01*
X210940952Y-118554285D01*
X210893333Y-118601904D01*
X210798095Y-118649523D01*
X210702857Y-118649523D01*
X210607619Y-118601904D01*
X210560000Y-118554285D01*
X210512380Y-118459047D01*
X210512380Y-118220952D01*
X210560000Y-118078095D01*
X210512380Y-117744761D02*
X211512380Y-117506666D01*
X210798095Y-117316190D01*
X211512380Y-117125714D01*
X210512380Y-116887619D01*
X210512380Y-116601904D02*
X210512380Y-115935238D01*
X211512380Y-116363809D01*
X210845714Y-115125714D02*
X211512380Y-115125714D01*
X210464761Y-115363809D02*
X211179047Y-115601904D01*
X211179047Y-114982857D01*
X202574761Y-118649523D02*
X202622380Y-118506666D01*
X202622380Y-118268571D01*
X202574761Y-118173333D01*
X202527142Y-118125714D01*
X202431904Y-118078095D01*
X202336666Y-118078095D01*
X202241428Y-118125714D01*
X202193809Y-118173333D01*
X202146190Y-118268571D01*
X202098571Y-118459047D01*
X202050952Y-118554285D01*
X202003333Y-118601904D01*
X201908095Y-118649523D01*
X201812857Y-118649523D01*
X201717619Y-118601904D01*
X201670000Y-118554285D01*
X201622380Y-118459047D01*
X201622380Y-118220952D01*
X201670000Y-118078095D01*
X201622380Y-117744761D02*
X202622380Y-117506666D01*
X201908095Y-117316190D01*
X202622380Y-117125714D01*
X201622380Y-116887619D01*
X201622380Y-116601904D02*
X201622380Y-115935238D01*
X202622380Y-116363809D01*
X201622380Y-115649523D02*
X201622380Y-115030476D01*
X202003333Y-115363809D01*
X202003333Y-115220952D01*
X202050952Y-115125714D01*
X202098571Y-115078095D01*
X202193809Y-115030476D01*
X202431904Y-115030476D01*
X202527142Y-115078095D01*
X202574761Y-115125714D01*
X202622380Y-115220952D01*
X202622380Y-115506666D01*
X202574761Y-115601904D01*
X202527142Y-115649523D01*
X193684761Y-118649523D02*
X193732380Y-118506666D01*
X193732380Y-118268571D01*
X193684761Y-118173333D01*
X193637142Y-118125714D01*
X193541904Y-118078095D01*
X193446666Y-118078095D01*
X193351428Y-118125714D01*
X193303809Y-118173333D01*
X193256190Y-118268571D01*
X193208571Y-118459047D01*
X193160952Y-118554285D01*
X193113333Y-118601904D01*
X193018095Y-118649523D01*
X192922857Y-118649523D01*
X192827619Y-118601904D01*
X192780000Y-118554285D01*
X192732380Y-118459047D01*
X192732380Y-118220952D01*
X192780000Y-118078095D01*
X192732380Y-117744761D02*
X193732380Y-117506666D01*
X193018095Y-117316190D01*
X193732380Y-117125714D01*
X192732380Y-116887619D01*
X192732380Y-116601904D02*
X192732380Y-115935238D01*
X193732380Y-116363809D01*
X192827619Y-115601904D02*
X192780000Y-115554285D01*
X192732380Y-115459047D01*
X192732380Y-115220952D01*
X192780000Y-115125714D01*
X192827619Y-115078095D01*
X192922857Y-115030476D01*
X193018095Y-115030476D01*
X193160952Y-115078095D01*
X193732380Y-115649523D01*
X193732380Y-115030476D01*
X184794761Y-118649523D02*
X184842380Y-118506666D01*
X184842380Y-118268571D01*
X184794761Y-118173333D01*
X184747142Y-118125714D01*
X184651904Y-118078095D01*
X184556666Y-118078095D01*
X184461428Y-118125714D01*
X184413809Y-118173333D01*
X184366190Y-118268571D01*
X184318571Y-118459047D01*
X184270952Y-118554285D01*
X184223333Y-118601904D01*
X184128095Y-118649523D01*
X184032857Y-118649523D01*
X183937619Y-118601904D01*
X183890000Y-118554285D01*
X183842380Y-118459047D01*
X183842380Y-118220952D01*
X183890000Y-118078095D01*
X183842380Y-117744761D02*
X184842380Y-117506666D01*
X184128095Y-117316190D01*
X184842380Y-117125714D01*
X183842380Y-116887619D01*
X183842380Y-116601904D02*
X183842380Y-115935238D01*
X184842380Y-116363809D01*
X184842380Y-115030476D02*
X184842380Y-115601904D01*
X184842380Y-115316190D02*
X183842380Y-115316190D01*
X183985238Y-115411428D01*
X184080476Y-115506666D01*
X184128095Y-115601904D01*
X175904761Y-118649523D02*
X175952380Y-118506666D01*
X175952380Y-118268571D01*
X175904761Y-118173333D01*
X175857142Y-118125714D01*
X175761904Y-118078095D01*
X175666666Y-118078095D01*
X175571428Y-118125714D01*
X175523809Y-118173333D01*
X175476190Y-118268571D01*
X175428571Y-118459047D01*
X175380952Y-118554285D01*
X175333333Y-118601904D01*
X175238095Y-118649523D01*
X175142857Y-118649523D01*
X175047619Y-118601904D01*
X175000000Y-118554285D01*
X174952380Y-118459047D01*
X174952380Y-118220952D01*
X175000000Y-118078095D01*
X174952380Y-117744761D02*
X175952380Y-117506666D01*
X175238095Y-117316190D01*
X175952380Y-117125714D01*
X174952380Y-116887619D01*
X174952380Y-116601904D02*
X174952380Y-115935238D01*
X175952380Y-116363809D01*
X174952380Y-115363809D02*
X174952380Y-115268571D01*
X175000000Y-115173333D01*
X175047619Y-115125714D01*
X175142857Y-115078095D01*
X175333333Y-115030476D01*
X175571428Y-115030476D01*
X175761904Y-115078095D01*
X175857142Y-115125714D01*
X175904761Y-115173333D01*
X175952380Y-115268571D01*
X175952380Y-115363809D01*
X175904761Y-115459047D01*
X175857142Y-115506666D01*
X175761904Y-115554285D01*
X175571428Y-115601904D01*
X175333333Y-115601904D01*
X175142857Y-115554285D01*
X175047619Y-115506666D01*
X175000000Y-115459047D01*
X174952380Y-115363809D01*
X238134761Y-107219523D02*
X238182380Y-107076666D01*
X238182380Y-106838571D01*
X238134761Y-106743333D01*
X238087142Y-106695714D01*
X237991904Y-106648095D01*
X237896666Y-106648095D01*
X237801428Y-106695714D01*
X237753809Y-106743333D01*
X237706190Y-106838571D01*
X237658571Y-107029047D01*
X237610952Y-107124285D01*
X237563333Y-107171904D01*
X237468095Y-107219523D01*
X237372857Y-107219523D01*
X237277619Y-107171904D01*
X237230000Y-107124285D01*
X237182380Y-107029047D01*
X237182380Y-106790952D01*
X237230000Y-106648095D01*
X237182380Y-106314761D02*
X238182380Y-106076666D01*
X237468095Y-105886190D01*
X238182380Y-105695714D01*
X237182380Y-105457619D01*
X237182380Y-104648095D02*
X237182380Y-104838571D01*
X237230000Y-104933809D01*
X237277619Y-104981428D01*
X237420476Y-105076666D01*
X237610952Y-105124285D01*
X237991904Y-105124285D01*
X238087142Y-105076666D01*
X238134761Y-105029047D01*
X238182380Y-104933809D01*
X238182380Y-104743333D01*
X238134761Y-104648095D01*
X238087142Y-104600476D01*
X237991904Y-104552857D01*
X237753809Y-104552857D01*
X237658571Y-104600476D01*
X237610952Y-104648095D01*
X237563333Y-104743333D01*
X237563333Y-104933809D01*
X237610952Y-105029047D01*
X237658571Y-105076666D01*
X237753809Y-105124285D01*
X237182380Y-104219523D02*
X237182380Y-103552857D01*
X238182380Y-103981428D01*
X229244761Y-107219523D02*
X229292380Y-107076666D01*
X229292380Y-106838571D01*
X229244761Y-106743333D01*
X229197142Y-106695714D01*
X229101904Y-106648095D01*
X229006666Y-106648095D01*
X228911428Y-106695714D01*
X228863809Y-106743333D01*
X228816190Y-106838571D01*
X228768571Y-107029047D01*
X228720952Y-107124285D01*
X228673333Y-107171904D01*
X228578095Y-107219523D01*
X228482857Y-107219523D01*
X228387619Y-107171904D01*
X228340000Y-107124285D01*
X228292380Y-107029047D01*
X228292380Y-106790952D01*
X228340000Y-106648095D01*
X228292380Y-106314761D02*
X229292380Y-106076666D01*
X228578095Y-105886190D01*
X229292380Y-105695714D01*
X228292380Y-105457619D01*
X228292380Y-104648095D02*
X228292380Y-104838571D01*
X228340000Y-104933809D01*
X228387619Y-104981428D01*
X228530476Y-105076666D01*
X228720952Y-105124285D01*
X229101904Y-105124285D01*
X229197142Y-105076666D01*
X229244761Y-105029047D01*
X229292380Y-104933809D01*
X229292380Y-104743333D01*
X229244761Y-104648095D01*
X229197142Y-104600476D01*
X229101904Y-104552857D01*
X228863809Y-104552857D01*
X228768571Y-104600476D01*
X228720952Y-104648095D01*
X228673333Y-104743333D01*
X228673333Y-104933809D01*
X228720952Y-105029047D01*
X228768571Y-105076666D01*
X228863809Y-105124285D01*
X228292380Y-103695714D02*
X228292380Y-103886190D01*
X228340000Y-103981428D01*
X228387619Y-104029047D01*
X228530476Y-104124285D01*
X228720952Y-104171904D01*
X229101904Y-104171904D01*
X229197142Y-104124285D01*
X229244761Y-104076666D01*
X229292380Y-103981428D01*
X229292380Y-103790952D01*
X229244761Y-103695714D01*
X229197142Y-103648095D01*
X229101904Y-103600476D01*
X228863809Y-103600476D01*
X228768571Y-103648095D01*
X228720952Y-103695714D01*
X228673333Y-103790952D01*
X228673333Y-103981428D01*
X228720952Y-104076666D01*
X228768571Y-104124285D01*
X228863809Y-104171904D01*
X220354761Y-107219523D02*
X220402380Y-107076666D01*
X220402380Y-106838571D01*
X220354761Y-106743333D01*
X220307142Y-106695714D01*
X220211904Y-106648095D01*
X220116666Y-106648095D01*
X220021428Y-106695714D01*
X219973809Y-106743333D01*
X219926190Y-106838571D01*
X219878571Y-107029047D01*
X219830952Y-107124285D01*
X219783333Y-107171904D01*
X219688095Y-107219523D01*
X219592857Y-107219523D01*
X219497619Y-107171904D01*
X219450000Y-107124285D01*
X219402380Y-107029047D01*
X219402380Y-106790952D01*
X219450000Y-106648095D01*
X219402380Y-106314761D02*
X220402380Y-106076666D01*
X219688095Y-105886190D01*
X220402380Y-105695714D01*
X219402380Y-105457619D01*
X219402380Y-104648095D02*
X219402380Y-104838571D01*
X219450000Y-104933809D01*
X219497619Y-104981428D01*
X219640476Y-105076666D01*
X219830952Y-105124285D01*
X220211904Y-105124285D01*
X220307142Y-105076666D01*
X220354761Y-105029047D01*
X220402380Y-104933809D01*
X220402380Y-104743333D01*
X220354761Y-104648095D01*
X220307142Y-104600476D01*
X220211904Y-104552857D01*
X219973809Y-104552857D01*
X219878571Y-104600476D01*
X219830952Y-104648095D01*
X219783333Y-104743333D01*
X219783333Y-104933809D01*
X219830952Y-105029047D01*
X219878571Y-105076666D01*
X219973809Y-105124285D01*
X219402380Y-103648095D02*
X219402380Y-104124285D01*
X219878571Y-104171904D01*
X219830952Y-104124285D01*
X219783333Y-104029047D01*
X219783333Y-103790952D01*
X219830952Y-103695714D01*
X219878571Y-103648095D01*
X219973809Y-103600476D01*
X220211904Y-103600476D01*
X220307142Y-103648095D01*
X220354761Y-103695714D01*
X220402380Y-103790952D01*
X220402380Y-104029047D01*
X220354761Y-104124285D01*
X220307142Y-104171904D01*
X211464761Y-107219523D02*
X211512380Y-107076666D01*
X211512380Y-106838571D01*
X211464761Y-106743333D01*
X211417142Y-106695714D01*
X211321904Y-106648095D01*
X211226666Y-106648095D01*
X211131428Y-106695714D01*
X211083809Y-106743333D01*
X211036190Y-106838571D01*
X210988571Y-107029047D01*
X210940952Y-107124285D01*
X210893333Y-107171904D01*
X210798095Y-107219523D01*
X210702857Y-107219523D01*
X210607619Y-107171904D01*
X210560000Y-107124285D01*
X210512380Y-107029047D01*
X210512380Y-106790952D01*
X210560000Y-106648095D01*
X210512380Y-106314761D02*
X211512380Y-106076666D01*
X210798095Y-105886190D01*
X211512380Y-105695714D01*
X210512380Y-105457619D01*
X210512380Y-104648095D02*
X210512380Y-104838571D01*
X210560000Y-104933809D01*
X210607619Y-104981428D01*
X210750476Y-105076666D01*
X210940952Y-105124285D01*
X211321904Y-105124285D01*
X211417142Y-105076666D01*
X211464761Y-105029047D01*
X211512380Y-104933809D01*
X211512380Y-104743333D01*
X211464761Y-104648095D01*
X211417142Y-104600476D01*
X211321904Y-104552857D01*
X211083809Y-104552857D01*
X210988571Y-104600476D01*
X210940952Y-104648095D01*
X210893333Y-104743333D01*
X210893333Y-104933809D01*
X210940952Y-105029047D01*
X210988571Y-105076666D01*
X211083809Y-105124285D01*
X210845714Y-103695714D02*
X211512380Y-103695714D01*
X210464761Y-103933809D02*
X211179047Y-104171904D01*
X211179047Y-103552857D01*
X202574761Y-107219523D02*
X202622380Y-107076666D01*
X202622380Y-106838571D01*
X202574761Y-106743333D01*
X202527142Y-106695714D01*
X202431904Y-106648095D01*
X202336666Y-106648095D01*
X202241428Y-106695714D01*
X202193809Y-106743333D01*
X202146190Y-106838571D01*
X202098571Y-107029047D01*
X202050952Y-107124285D01*
X202003333Y-107171904D01*
X201908095Y-107219523D01*
X201812857Y-107219523D01*
X201717619Y-107171904D01*
X201670000Y-107124285D01*
X201622380Y-107029047D01*
X201622380Y-106790952D01*
X201670000Y-106648095D01*
X201622380Y-106314761D02*
X202622380Y-106076666D01*
X201908095Y-105886190D01*
X202622380Y-105695714D01*
X201622380Y-105457619D01*
X201622380Y-104648095D02*
X201622380Y-104838571D01*
X201670000Y-104933809D01*
X201717619Y-104981428D01*
X201860476Y-105076666D01*
X202050952Y-105124285D01*
X202431904Y-105124285D01*
X202527142Y-105076666D01*
X202574761Y-105029047D01*
X202622380Y-104933809D01*
X202622380Y-104743333D01*
X202574761Y-104648095D01*
X202527142Y-104600476D01*
X202431904Y-104552857D01*
X202193809Y-104552857D01*
X202098571Y-104600476D01*
X202050952Y-104648095D01*
X202003333Y-104743333D01*
X202003333Y-104933809D01*
X202050952Y-105029047D01*
X202098571Y-105076666D01*
X202193809Y-105124285D01*
X201622380Y-104219523D02*
X201622380Y-103600476D01*
X202003333Y-103933809D01*
X202003333Y-103790952D01*
X202050952Y-103695714D01*
X202098571Y-103648095D01*
X202193809Y-103600476D01*
X202431904Y-103600476D01*
X202527142Y-103648095D01*
X202574761Y-103695714D01*
X202622380Y-103790952D01*
X202622380Y-104076666D01*
X202574761Y-104171904D01*
X202527142Y-104219523D01*
X193684761Y-107219523D02*
X193732380Y-107076666D01*
X193732380Y-106838571D01*
X193684761Y-106743333D01*
X193637142Y-106695714D01*
X193541904Y-106648095D01*
X193446666Y-106648095D01*
X193351428Y-106695714D01*
X193303809Y-106743333D01*
X193256190Y-106838571D01*
X193208571Y-107029047D01*
X193160952Y-107124285D01*
X193113333Y-107171904D01*
X193018095Y-107219523D01*
X192922857Y-107219523D01*
X192827619Y-107171904D01*
X192780000Y-107124285D01*
X192732380Y-107029047D01*
X192732380Y-106790952D01*
X192780000Y-106648095D01*
X192732380Y-106314761D02*
X193732380Y-106076666D01*
X193018095Y-105886190D01*
X193732380Y-105695714D01*
X192732380Y-105457619D01*
X192732380Y-104648095D02*
X192732380Y-104838571D01*
X192780000Y-104933809D01*
X192827619Y-104981428D01*
X192970476Y-105076666D01*
X193160952Y-105124285D01*
X193541904Y-105124285D01*
X193637142Y-105076666D01*
X193684761Y-105029047D01*
X193732380Y-104933809D01*
X193732380Y-104743333D01*
X193684761Y-104648095D01*
X193637142Y-104600476D01*
X193541904Y-104552857D01*
X193303809Y-104552857D01*
X193208571Y-104600476D01*
X193160952Y-104648095D01*
X193113333Y-104743333D01*
X193113333Y-104933809D01*
X193160952Y-105029047D01*
X193208571Y-105076666D01*
X193303809Y-105124285D01*
X192827619Y-104171904D02*
X192780000Y-104124285D01*
X192732380Y-104029047D01*
X192732380Y-103790952D01*
X192780000Y-103695714D01*
X192827619Y-103648095D01*
X192922857Y-103600476D01*
X193018095Y-103600476D01*
X193160952Y-103648095D01*
X193732380Y-104219523D01*
X193732380Y-103600476D01*
X184794761Y-107219523D02*
X184842380Y-107076666D01*
X184842380Y-106838571D01*
X184794761Y-106743333D01*
X184747142Y-106695714D01*
X184651904Y-106648095D01*
X184556666Y-106648095D01*
X184461428Y-106695714D01*
X184413809Y-106743333D01*
X184366190Y-106838571D01*
X184318571Y-107029047D01*
X184270952Y-107124285D01*
X184223333Y-107171904D01*
X184128095Y-107219523D01*
X184032857Y-107219523D01*
X183937619Y-107171904D01*
X183890000Y-107124285D01*
X183842380Y-107029047D01*
X183842380Y-106790952D01*
X183890000Y-106648095D01*
X183842380Y-106314761D02*
X184842380Y-106076666D01*
X184128095Y-105886190D01*
X184842380Y-105695714D01*
X183842380Y-105457619D01*
X183842380Y-104648095D02*
X183842380Y-104838571D01*
X183890000Y-104933809D01*
X183937619Y-104981428D01*
X184080476Y-105076666D01*
X184270952Y-105124285D01*
X184651904Y-105124285D01*
X184747142Y-105076666D01*
X184794761Y-105029047D01*
X184842380Y-104933809D01*
X184842380Y-104743333D01*
X184794761Y-104648095D01*
X184747142Y-104600476D01*
X184651904Y-104552857D01*
X184413809Y-104552857D01*
X184318571Y-104600476D01*
X184270952Y-104648095D01*
X184223333Y-104743333D01*
X184223333Y-104933809D01*
X184270952Y-105029047D01*
X184318571Y-105076666D01*
X184413809Y-105124285D01*
X184842380Y-103600476D02*
X184842380Y-104171904D01*
X184842380Y-103886190D02*
X183842380Y-103886190D01*
X183985238Y-103981428D01*
X184080476Y-104076666D01*
X184128095Y-104171904D01*
X175904761Y-107219523D02*
X175952380Y-107076666D01*
X175952380Y-106838571D01*
X175904761Y-106743333D01*
X175857142Y-106695714D01*
X175761904Y-106648095D01*
X175666666Y-106648095D01*
X175571428Y-106695714D01*
X175523809Y-106743333D01*
X175476190Y-106838571D01*
X175428571Y-107029047D01*
X175380952Y-107124285D01*
X175333333Y-107171904D01*
X175238095Y-107219523D01*
X175142857Y-107219523D01*
X175047619Y-107171904D01*
X175000000Y-107124285D01*
X174952380Y-107029047D01*
X174952380Y-106790952D01*
X175000000Y-106648095D01*
X174952380Y-106314761D02*
X175952380Y-106076666D01*
X175238095Y-105886190D01*
X175952380Y-105695714D01*
X174952380Y-105457619D01*
X174952380Y-104648095D02*
X174952380Y-104838571D01*
X175000000Y-104933809D01*
X175047619Y-104981428D01*
X175190476Y-105076666D01*
X175380952Y-105124285D01*
X175761904Y-105124285D01*
X175857142Y-105076666D01*
X175904761Y-105029047D01*
X175952380Y-104933809D01*
X175952380Y-104743333D01*
X175904761Y-104648095D01*
X175857142Y-104600476D01*
X175761904Y-104552857D01*
X175523809Y-104552857D01*
X175428571Y-104600476D01*
X175380952Y-104648095D01*
X175333333Y-104743333D01*
X175333333Y-104933809D01*
X175380952Y-105029047D01*
X175428571Y-105076666D01*
X175523809Y-105124285D01*
X174952380Y-103933809D02*
X174952380Y-103838571D01*
X175000000Y-103743333D01*
X175047619Y-103695714D01*
X175142857Y-103648095D01*
X175333333Y-103600476D01*
X175571428Y-103600476D01*
X175761904Y-103648095D01*
X175857142Y-103695714D01*
X175904761Y-103743333D01*
X175952380Y-103838571D01*
X175952380Y-103933809D01*
X175904761Y-104029047D01*
X175857142Y-104076666D01*
X175761904Y-104124285D01*
X175571428Y-104171904D01*
X175333333Y-104171904D01*
X175142857Y-104124285D01*
X175047619Y-104076666D01*
X175000000Y-104029047D01*
X174952380Y-103933809D01*
X238134761Y-95789523D02*
X238182380Y-95646666D01*
X238182380Y-95408571D01*
X238134761Y-95313333D01*
X238087142Y-95265714D01*
X237991904Y-95218095D01*
X237896666Y-95218095D01*
X237801428Y-95265714D01*
X237753809Y-95313333D01*
X237706190Y-95408571D01*
X237658571Y-95599047D01*
X237610952Y-95694285D01*
X237563333Y-95741904D01*
X237468095Y-95789523D01*
X237372857Y-95789523D01*
X237277619Y-95741904D01*
X237230000Y-95694285D01*
X237182380Y-95599047D01*
X237182380Y-95360952D01*
X237230000Y-95218095D01*
X237182380Y-94884761D02*
X238182380Y-94646666D01*
X237468095Y-94456190D01*
X238182380Y-94265714D01*
X237182380Y-94027619D01*
X237182380Y-93170476D02*
X237182380Y-93646666D01*
X237658571Y-93694285D01*
X237610952Y-93646666D01*
X237563333Y-93551428D01*
X237563333Y-93313333D01*
X237610952Y-93218095D01*
X237658571Y-93170476D01*
X237753809Y-93122857D01*
X237991904Y-93122857D01*
X238087142Y-93170476D01*
X238134761Y-93218095D01*
X238182380Y-93313333D01*
X238182380Y-93551428D01*
X238134761Y-93646666D01*
X238087142Y-93694285D01*
X237182380Y-92789523D02*
X237182380Y-92122857D01*
X238182380Y-92551428D01*
X229244761Y-95789523D02*
X229292380Y-95646666D01*
X229292380Y-95408571D01*
X229244761Y-95313333D01*
X229197142Y-95265714D01*
X229101904Y-95218095D01*
X229006666Y-95218095D01*
X228911428Y-95265714D01*
X228863809Y-95313333D01*
X228816190Y-95408571D01*
X228768571Y-95599047D01*
X228720952Y-95694285D01*
X228673333Y-95741904D01*
X228578095Y-95789523D01*
X228482857Y-95789523D01*
X228387619Y-95741904D01*
X228340000Y-95694285D01*
X228292380Y-95599047D01*
X228292380Y-95360952D01*
X228340000Y-95218095D01*
X228292380Y-94884761D02*
X229292380Y-94646666D01*
X228578095Y-94456190D01*
X229292380Y-94265714D01*
X228292380Y-94027619D01*
X228292380Y-93170476D02*
X228292380Y-93646666D01*
X228768571Y-93694285D01*
X228720952Y-93646666D01*
X228673333Y-93551428D01*
X228673333Y-93313333D01*
X228720952Y-93218095D01*
X228768571Y-93170476D01*
X228863809Y-93122857D01*
X229101904Y-93122857D01*
X229197142Y-93170476D01*
X229244761Y-93218095D01*
X229292380Y-93313333D01*
X229292380Y-93551428D01*
X229244761Y-93646666D01*
X229197142Y-93694285D01*
X228292380Y-92265714D02*
X228292380Y-92456190D01*
X228340000Y-92551428D01*
X228387619Y-92599047D01*
X228530476Y-92694285D01*
X228720952Y-92741904D01*
X229101904Y-92741904D01*
X229197142Y-92694285D01*
X229244761Y-92646666D01*
X229292380Y-92551428D01*
X229292380Y-92360952D01*
X229244761Y-92265714D01*
X229197142Y-92218095D01*
X229101904Y-92170476D01*
X228863809Y-92170476D01*
X228768571Y-92218095D01*
X228720952Y-92265714D01*
X228673333Y-92360952D01*
X228673333Y-92551428D01*
X228720952Y-92646666D01*
X228768571Y-92694285D01*
X228863809Y-92741904D01*
X220354761Y-95789523D02*
X220402380Y-95646666D01*
X220402380Y-95408571D01*
X220354761Y-95313333D01*
X220307142Y-95265714D01*
X220211904Y-95218095D01*
X220116666Y-95218095D01*
X220021428Y-95265714D01*
X219973809Y-95313333D01*
X219926190Y-95408571D01*
X219878571Y-95599047D01*
X219830952Y-95694285D01*
X219783333Y-95741904D01*
X219688095Y-95789523D01*
X219592857Y-95789523D01*
X219497619Y-95741904D01*
X219450000Y-95694285D01*
X219402380Y-95599047D01*
X219402380Y-95360952D01*
X219450000Y-95218095D01*
X219402380Y-94884761D02*
X220402380Y-94646666D01*
X219688095Y-94456190D01*
X220402380Y-94265714D01*
X219402380Y-94027619D01*
X219402380Y-93170476D02*
X219402380Y-93646666D01*
X219878571Y-93694285D01*
X219830952Y-93646666D01*
X219783333Y-93551428D01*
X219783333Y-93313333D01*
X219830952Y-93218095D01*
X219878571Y-93170476D01*
X219973809Y-93122857D01*
X220211904Y-93122857D01*
X220307142Y-93170476D01*
X220354761Y-93218095D01*
X220402380Y-93313333D01*
X220402380Y-93551428D01*
X220354761Y-93646666D01*
X220307142Y-93694285D01*
X219402380Y-92218095D02*
X219402380Y-92694285D01*
X219878571Y-92741904D01*
X219830952Y-92694285D01*
X219783333Y-92599047D01*
X219783333Y-92360952D01*
X219830952Y-92265714D01*
X219878571Y-92218095D01*
X219973809Y-92170476D01*
X220211904Y-92170476D01*
X220307142Y-92218095D01*
X220354761Y-92265714D01*
X220402380Y-92360952D01*
X220402380Y-92599047D01*
X220354761Y-92694285D01*
X220307142Y-92741904D01*
X211464761Y-95789523D02*
X211512380Y-95646666D01*
X211512380Y-95408571D01*
X211464761Y-95313333D01*
X211417142Y-95265714D01*
X211321904Y-95218095D01*
X211226666Y-95218095D01*
X211131428Y-95265714D01*
X211083809Y-95313333D01*
X211036190Y-95408571D01*
X210988571Y-95599047D01*
X210940952Y-95694285D01*
X210893333Y-95741904D01*
X210798095Y-95789523D01*
X210702857Y-95789523D01*
X210607619Y-95741904D01*
X210560000Y-95694285D01*
X210512380Y-95599047D01*
X210512380Y-95360952D01*
X210560000Y-95218095D01*
X210512380Y-94884761D02*
X211512380Y-94646666D01*
X210798095Y-94456190D01*
X211512380Y-94265714D01*
X210512380Y-94027619D01*
X210512380Y-93170476D02*
X210512380Y-93646666D01*
X210988571Y-93694285D01*
X210940952Y-93646666D01*
X210893333Y-93551428D01*
X210893333Y-93313333D01*
X210940952Y-93218095D01*
X210988571Y-93170476D01*
X211083809Y-93122857D01*
X211321904Y-93122857D01*
X211417142Y-93170476D01*
X211464761Y-93218095D01*
X211512380Y-93313333D01*
X211512380Y-93551428D01*
X211464761Y-93646666D01*
X211417142Y-93694285D01*
X210845714Y-92265714D02*
X211512380Y-92265714D01*
X210464761Y-92503809D02*
X211179047Y-92741904D01*
X211179047Y-92122857D01*
X202574761Y-95789523D02*
X202622380Y-95646666D01*
X202622380Y-95408571D01*
X202574761Y-95313333D01*
X202527142Y-95265714D01*
X202431904Y-95218095D01*
X202336666Y-95218095D01*
X202241428Y-95265714D01*
X202193809Y-95313333D01*
X202146190Y-95408571D01*
X202098571Y-95599047D01*
X202050952Y-95694285D01*
X202003333Y-95741904D01*
X201908095Y-95789523D01*
X201812857Y-95789523D01*
X201717619Y-95741904D01*
X201670000Y-95694285D01*
X201622380Y-95599047D01*
X201622380Y-95360952D01*
X201670000Y-95218095D01*
X201622380Y-94884761D02*
X202622380Y-94646666D01*
X201908095Y-94456190D01*
X202622380Y-94265714D01*
X201622380Y-94027619D01*
X201622380Y-93170476D02*
X201622380Y-93646666D01*
X202098571Y-93694285D01*
X202050952Y-93646666D01*
X202003333Y-93551428D01*
X202003333Y-93313333D01*
X202050952Y-93218095D01*
X202098571Y-93170476D01*
X202193809Y-93122857D01*
X202431904Y-93122857D01*
X202527142Y-93170476D01*
X202574761Y-93218095D01*
X202622380Y-93313333D01*
X202622380Y-93551428D01*
X202574761Y-93646666D01*
X202527142Y-93694285D01*
X201622380Y-92789523D02*
X201622380Y-92170476D01*
X202003333Y-92503809D01*
X202003333Y-92360952D01*
X202050952Y-92265714D01*
X202098571Y-92218095D01*
X202193809Y-92170476D01*
X202431904Y-92170476D01*
X202527142Y-92218095D01*
X202574761Y-92265714D01*
X202622380Y-92360952D01*
X202622380Y-92646666D01*
X202574761Y-92741904D01*
X202527142Y-92789523D01*
X193684761Y-95789523D02*
X193732380Y-95646666D01*
X193732380Y-95408571D01*
X193684761Y-95313333D01*
X193637142Y-95265714D01*
X193541904Y-95218095D01*
X193446666Y-95218095D01*
X193351428Y-95265714D01*
X193303809Y-95313333D01*
X193256190Y-95408571D01*
X193208571Y-95599047D01*
X193160952Y-95694285D01*
X193113333Y-95741904D01*
X193018095Y-95789523D01*
X192922857Y-95789523D01*
X192827619Y-95741904D01*
X192780000Y-95694285D01*
X192732380Y-95599047D01*
X192732380Y-95360952D01*
X192780000Y-95218095D01*
X192732380Y-94884761D02*
X193732380Y-94646666D01*
X193018095Y-94456190D01*
X193732380Y-94265714D01*
X192732380Y-94027619D01*
X192732380Y-93170476D02*
X192732380Y-93646666D01*
X193208571Y-93694285D01*
X193160952Y-93646666D01*
X193113333Y-93551428D01*
X193113333Y-93313333D01*
X193160952Y-93218095D01*
X193208571Y-93170476D01*
X193303809Y-93122857D01*
X193541904Y-93122857D01*
X193637142Y-93170476D01*
X193684761Y-93218095D01*
X193732380Y-93313333D01*
X193732380Y-93551428D01*
X193684761Y-93646666D01*
X193637142Y-93694285D01*
X192827619Y-92741904D02*
X192780000Y-92694285D01*
X192732380Y-92599047D01*
X192732380Y-92360952D01*
X192780000Y-92265714D01*
X192827619Y-92218095D01*
X192922857Y-92170476D01*
X193018095Y-92170476D01*
X193160952Y-92218095D01*
X193732380Y-92789523D01*
X193732380Y-92170476D01*
X184794761Y-95789523D02*
X184842380Y-95646666D01*
X184842380Y-95408571D01*
X184794761Y-95313333D01*
X184747142Y-95265714D01*
X184651904Y-95218095D01*
X184556666Y-95218095D01*
X184461428Y-95265714D01*
X184413809Y-95313333D01*
X184366190Y-95408571D01*
X184318571Y-95599047D01*
X184270952Y-95694285D01*
X184223333Y-95741904D01*
X184128095Y-95789523D01*
X184032857Y-95789523D01*
X183937619Y-95741904D01*
X183890000Y-95694285D01*
X183842380Y-95599047D01*
X183842380Y-95360952D01*
X183890000Y-95218095D01*
X183842380Y-94884761D02*
X184842380Y-94646666D01*
X184128095Y-94456190D01*
X184842380Y-94265714D01*
X183842380Y-94027619D01*
X183842380Y-93170476D02*
X183842380Y-93646666D01*
X184318571Y-93694285D01*
X184270952Y-93646666D01*
X184223333Y-93551428D01*
X184223333Y-93313333D01*
X184270952Y-93218095D01*
X184318571Y-93170476D01*
X184413809Y-93122857D01*
X184651904Y-93122857D01*
X184747142Y-93170476D01*
X184794761Y-93218095D01*
X184842380Y-93313333D01*
X184842380Y-93551428D01*
X184794761Y-93646666D01*
X184747142Y-93694285D01*
X184842380Y-92170476D02*
X184842380Y-92741904D01*
X184842380Y-92456190D02*
X183842380Y-92456190D01*
X183985238Y-92551428D01*
X184080476Y-92646666D01*
X184128095Y-92741904D01*
X175904761Y-95789523D02*
X175952380Y-95646666D01*
X175952380Y-95408571D01*
X175904761Y-95313333D01*
X175857142Y-95265714D01*
X175761904Y-95218095D01*
X175666666Y-95218095D01*
X175571428Y-95265714D01*
X175523809Y-95313333D01*
X175476190Y-95408571D01*
X175428571Y-95599047D01*
X175380952Y-95694285D01*
X175333333Y-95741904D01*
X175238095Y-95789523D01*
X175142857Y-95789523D01*
X175047619Y-95741904D01*
X175000000Y-95694285D01*
X174952380Y-95599047D01*
X174952380Y-95360952D01*
X175000000Y-95218095D01*
X174952380Y-94884761D02*
X175952380Y-94646666D01*
X175238095Y-94456190D01*
X175952380Y-94265714D01*
X174952380Y-94027619D01*
X174952380Y-93170476D02*
X174952380Y-93646666D01*
X175428571Y-93694285D01*
X175380952Y-93646666D01*
X175333333Y-93551428D01*
X175333333Y-93313333D01*
X175380952Y-93218095D01*
X175428571Y-93170476D01*
X175523809Y-93122857D01*
X175761904Y-93122857D01*
X175857142Y-93170476D01*
X175904761Y-93218095D01*
X175952380Y-93313333D01*
X175952380Y-93551428D01*
X175904761Y-93646666D01*
X175857142Y-93694285D01*
X174952380Y-92503809D02*
X174952380Y-92408571D01*
X175000000Y-92313333D01*
X175047619Y-92265714D01*
X175142857Y-92218095D01*
X175333333Y-92170476D01*
X175571428Y-92170476D01*
X175761904Y-92218095D01*
X175857142Y-92265714D01*
X175904761Y-92313333D01*
X175952380Y-92408571D01*
X175952380Y-92503809D01*
X175904761Y-92599047D01*
X175857142Y-92646666D01*
X175761904Y-92694285D01*
X175571428Y-92741904D01*
X175333333Y-92741904D01*
X175142857Y-92694285D01*
X175047619Y-92646666D01*
X175000000Y-92599047D01*
X174952380Y-92503809D01*
X142884761Y-129909523D02*
X142932380Y-129766666D01*
X142932380Y-129528571D01*
X142884761Y-129433333D01*
X142837142Y-129385714D01*
X142741904Y-129338095D01*
X142646666Y-129338095D01*
X142551428Y-129385714D01*
X142503809Y-129433333D01*
X142456190Y-129528571D01*
X142408571Y-129719047D01*
X142360952Y-129814285D01*
X142313333Y-129861904D01*
X142218095Y-129909523D01*
X142122857Y-129909523D01*
X142027619Y-129861904D01*
X141980000Y-129814285D01*
X141932380Y-129719047D01*
X141932380Y-129480952D01*
X141980000Y-129338095D01*
X141932380Y-129004761D02*
X142932380Y-128766666D01*
X142218095Y-128576190D01*
X142932380Y-128385714D01*
X141932380Y-128147619D01*
X142265714Y-127338095D02*
X142932380Y-127338095D01*
X141884761Y-127576190D02*
X142599047Y-127814285D01*
X142599047Y-127195238D01*
X141932380Y-126909523D02*
X141932380Y-126242857D01*
X142932380Y-126671428D01*
X133994761Y-130079523D02*
X134042380Y-129936666D01*
X134042380Y-129698571D01*
X133994761Y-129603333D01*
X133947142Y-129555714D01*
X133851904Y-129508095D01*
X133756666Y-129508095D01*
X133661428Y-129555714D01*
X133613809Y-129603333D01*
X133566190Y-129698571D01*
X133518571Y-129889047D01*
X133470952Y-129984285D01*
X133423333Y-130031904D01*
X133328095Y-130079523D01*
X133232857Y-130079523D01*
X133137619Y-130031904D01*
X133090000Y-129984285D01*
X133042380Y-129889047D01*
X133042380Y-129650952D01*
X133090000Y-129508095D01*
X133042380Y-129174761D02*
X134042380Y-128936666D01*
X133328095Y-128746190D01*
X134042380Y-128555714D01*
X133042380Y-128317619D01*
X133375714Y-127508095D02*
X134042380Y-127508095D01*
X132994761Y-127746190D02*
X133709047Y-127984285D01*
X133709047Y-127365238D01*
X133042380Y-126555714D02*
X133042380Y-126746190D01*
X133090000Y-126841428D01*
X133137619Y-126889047D01*
X133280476Y-126984285D01*
X133470952Y-127031904D01*
X133851904Y-127031904D01*
X133947142Y-126984285D01*
X133994761Y-126936666D01*
X134042380Y-126841428D01*
X134042380Y-126650952D01*
X133994761Y-126555714D01*
X133947142Y-126508095D01*
X133851904Y-126460476D01*
X133613809Y-126460476D01*
X133518571Y-126508095D01*
X133470952Y-126555714D01*
X133423333Y-126650952D01*
X133423333Y-126841428D01*
X133470952Y-126936666D01*
X133518571Y-126984285D01*
X133613809Y-127031904D01*
X125104761Y-130079523D02*
X125152380Y-129936666D01*
X125152380Y-129698571D01*
X125104761Y-129603333D01*
X125057142Y-129555714D01*
X124961904Y-129508095D01*
X124866666Y-129508095D01*
X124771428Y-129555714D01*
X124723809Y-129603333D01*
X124676190Y-129698571D01*
X124628571Y-129889047D01*
X124580952Y-129984285D01*
X124533333Y-130031904D01*
X124438095Y-130079523D01*
X124342857Y-130079523D01*
X124247619Y-130031904D01*
X124200000Y-129984285D01*
X124152380Y-129889047D01*
X124152380Y-129650952D01*
X124200000Y-129508095D01*
X124152380Y-129174761D02*
X125152380Y-128936666D01*
X124438095Y-128746190D01*
X125152380Y-128555714D01*
X124152380Y-128317619D01*
X124485714Y-127508095D02*
X125152380Y-127508095D01*
X124104761Y-127746190D02*
X124819047Y-127984285D01*
X124819047Y-127365238D01*
X124152380Y-126508095D02*
X124152380Y-126984285D01*
X124628571Y-127031904D01*
X124580952Y-126984285D01*
X124533333Y-126889047D01*
X124533333Y-126650952D01*
X124580952Y-126555714D01*
X124628571Y-126508095D01*
X124723809Y-126460476D01*
X124961904Y-126460476D01*
X125057142Y-126508095D01*
X125104761Y-126555714D01*
X125152380Y-126650952D01*
X125152380Y-126889047D01*
X125104761Y-126984285D01*
X125057142Y-127031904D01*
X151484761Y-118649523D02*
X151532380Y-118506666D01*
X151532380Y-118268571D01*
X151484761Y-118173333D01*
X151437142Y-118125714D01*
X151341904Y-118078095D01*
X151246666Y-118078095D01*
X151151428Y-118125714D01*
X151103809Y-118173333D01*
X151056190Y-118268571D01*
X151008571Y-118459047D01*
X150960952Y-118554285D01*
X150913333Y-118601904D01*
X150818095Y-118649523D01*
X150722857Y-118649523D01*
X150627619Y-118601904D01*
X150580000Y-118554285D01*
X150532380Y-118459047D01*
X150532380Y-118220952D01*
X150580000Y-118078095D01*
X150532380Y-117744761D02*
X151532380Y-117506666D01*
X150818095Y-117316190D01*
X151532380Y-117125714D01*
X150532380Y-116887619D01*
X150865714Y-116078095D02*
X151532380Y-116078095D01*
X150484761Y-116316190D02*
X151199047Y-116554285D01*
X151199047Y-115935238D01*
X150865714Y-115125714D02*
X151532380Y-115125714D01*
X150484761Y-115363809D02*
X151199047Y-115601904D01*
X151199047Y-114982857D01*
X142884761Y-118649523D02*
X142932380Y-118506666D01*
X142932380Y-118268571D01*
X142884761Y-118173333D01*
X142837142Y-118125714D01*
X142741904Y-118078095D01*
X142646666Y-118078095D01*
X142551428Y-118125714D01*
X142503809Y-118173333D01*
X142456190Y-118268571D01*
X142408571Y-118459047D01*
X142360952Y-118554285D01*
X142313333Y-118601904D01*
X142218095Y-118649523D01*
X142122857Y-118649523D01*
X142027619Y-118601904D01*
X141980000Y-118554285D01*
X141932380Y-118459047D01*
X141932380Y-118220952D01*
X141980000Y-118078095D01*
X141932380Y-117744761D02*
X142932380Y-117506666D01*
X142218095Y-117316190D01*
X142932380Y-117125714D01*
X141932380Y-116887619D01*
X142265714Y-116078095D02*
X142932380Y-116078095D01*
X141884761Y-116316190D02*
X142599047Y-116554285D01*
X142599047Y-115935238D01*
X141932380Y-115649523D02*
X141932380Y-115030476D01*
X142313333Y-115363809D01*
X142313333Y-115220952D01*
X142360952Y-115125714D01*
X142408571Y-115078095D01*
X142503809Y-115030476D01*
X142741904Y-115030476D01*
X142837142Y-115078095D01*
X142884761Y-115125714D01*
X142932380Y-115220952D01*
X142932380Y-115506666D01*
X142884761Y-115601904D01*
X142837142Y-115649523D01*
X133994761Y-118649523D02*
X134042380Y-118506666D01*
X134042380Y-118268571D01*
X133994761Y-118173333D01*
X133947142Y-118125714D01*
X133851904Y-118078095D01*
X133756666Y-118078095D01*
X133661428Y-118125714D01*
X133613809Y-118173333D01*
X133566190Y-118268571D01*
X133518571Y-118459047D01*
X133470952Y-118554285D01*
X133423333Y-118601904D01*
X133328095Y-118649523D01*
X133232857Y-118649523D01*
X133137619Y-118601904D01*
X133090000Y-118554285D01*
X133042380Y-118459047D01*
X133042380Y-118220952D01*
X133090000Y-118078095D01*
X133042380Y-117744761D02*
X134042380Y-117506666D01*
X133328095Y-117316190D01*
X134042380Y-117125714D01*
X133042380Y-116887619D01*
X133375714Y-116078095D02*
X134042380Y-116078095D01*
X132994761Y-116316190D02*
X133709047Y-116554285D01*
X133709047Y-115935238D01*
X133137619Y-115601904D02*
X133090000Y-115554285D01*
X133042380Y-115459047D01*
X133042380Y-115220952D01*
X133090000Y-115125714D01*
X133137619Y-115078095D01*
X133232857Y-115030476D01*
X133328095Y-115030476D01*
X133470952Y-115078095D01*
X134042380Y-115649523D01*
X134042380Y-115030476D01*
X125104761Y-118649523D02*
X125152380Y-118506666D01*
X125152380Y-118268571D01*
X125104761Y-118173333D01*
X125057142Y-118125714D01*
X124961904Y-118078095D01*
X124866666Y-118078095D01*
X124771428Y-118125714D01*
X124723809Y-118173333D01*
X124676190Y-118268571D01*
X124628571Y-118459047D01*
X124580952Y-118554285D01*
X124533333Y-118601904D01*
X124438095Y-118649523D01*
X124342857Y-118649523D01*
X124247619Y-118601904D01*
X124200000Y-118554285D01*
X124152380Y-118459047D01*
X124152380Y-118220952D01*
X124200000Y-118078095D01*
X124152380Y-117744761D02*
X125152380Y-117506666D01*
X124438095Y-117316190D01*
X125152380Y-117125714D01*
X124152380Y-116887619D01*
X124485714Y-116078095D02*
X125152380Y-116078095D01*
X124104761Y-116316190D02*
X124819047Y-116554285D01*
X124819047Y-115935238D01*
X125152380Y-115030476D02*
X125152380Y-115601904D01*
X125152380Y-115316190D02*
X124152380Y-115316190D01*
X124295238Y-115411428D01*
X124390476Y-115506666D01*
X124438095Y-115601904D01*
X151484761Y-107219523D02*
X151532380Y-107076666D01*
X151532380Y-106838571D01*
X151484761Y-106743333D01*
X151437142Y-106695714D01*
X151341904Y-106648095D01*
X151246666Y-106648095D01*
X151151428Y-106695714D01*
X151103809Y-106743333D01*
X151056190Y-106838571D01*
X151008571Y-107029047D01*
X150960952Y-107124285D01*
X150913333Y-107171904D01*
X150818095Y-107219523D01*
X150722857Y-107219523D01*
X150627619Y-107171904D01*
X150580000Y-107124285D01*
X150532380Y-107029047D01*
X150532380Y-106790952D01*
X150580000Y-106648095D01*
X150532380Y-106314761D02*
X151532380Y-106076666D01*
X150818095Y-105886190D01*
X151532380Y-105695714D01*
X150532380Y-105457619D01*
X150865714Y-104648095D02*
X151532380Y-104648095D01*
X150484761Y-104886190D02*
X151199047Y-105124285D01*
X151199047Y-104505238D01*
X150532380Y-103933809D02*
X150532380Y-103838571D01*
X150580000Y-103743333D01*
X150627619Y-103695714D01*
X150722857Y-103648095D01*
X150913333Y-103600476D01*
X151151428Y-103600476D01*
X151341904Y-103648095D01*
X151437142Y-103695714D01*
X151484761Y-103743333D01*
X151532380Y-103838571D01*
X151532380Y-103933809D01*
X151484761Y-104029047D01*
X151437142Y-104076666D01*
X151341904Y-104124285D01*
X151151428Y-104171904D01*
X150913333Y-104171904D01*
X150722857Y-104124285D01*
X150627619Y-104076666D01*
X150580000Y-104029047D01*
X150532380Y-103933809D01*
X142884761Y-107219523D02*
X142932380Y-107076666D01*
X142932380Y-106838571D01*
X142884761Y-106743333D01*
X142837142Y-106695714D01*
X142741904Y-106648095D01*
X142646666Y-106648095D01*
X142551428Y-106695714D01*
X142503809Y-106743333D01*
X142456190Y-106838571D01*
X142408571Y-107029047D01*
X142360952Y-107124285D01*
X142313333Y-107171904D01*
X142218095Y-107219523D01*
X142122857Y-107219523D01*
X142027619Y-107171904D01*
X141980000Y-107124285D01*
X141932380Y-107029047D01*
X141932380Y-106790952D01*
X141980000Y-106648095D01*
X141932380Y-106314761D02*
X142932380Y-106076666D01*
X142218095Y-105886190D01*
X142932380Y-105695714D01*
X141932380Y-105457619D01*
X141932380Y-105171904D02*
X141932380Y-104552857D01*
X142313333Y-104886190D01*
X142313333Y-104743333D01*
X142360952Y-104648095D01*
X142408571Y-104600476D01*
X142503809Y-104552857D01*
X142741904Y-104552857D01*
X142837142Y-104600476D01*
X142884761Y-104648095D01*
X142932380Y-104743333D01*
X142932380Y-105029047D01*
X142884761Y-105124285D01*
X142837142Y-105171904D01*
X141932380Y-104219523D02*
X141932380Y-103552857D01*
X142932380Y-103981428D01*
X133994761Y-107219523D02*
X134042380Y-107076666D01*
X134042380Y-106838571D01*
X133994761Y-106743333D01*
X133947142Y-106695714D01*
X133851904Y-106648095D01*
X133756666Y-106648095D01*
X133661428Y-106695714D01*
X133613809Y-106743333D01*
X133566190Y-106838571D01*
X133518571Y-107029047D01*
X133470952Y-107124285D01*
X133423333Y-107171904D01*
X133328095Y-107219523D01*
X133232857Y-107219523D01*
X133137619Y-107171904D01*
X133090000Y-107124285D01*
X133042380Y-107029047D01*
X133042380Y-106790952D01*
X133090000Y-106648095D01*
X133042380Y-106314761D02*
X134042380Y-106076666D01*
X133328095Y-105886190D01*
X134042380Y-105695714D01*
X133042380Y-105457619D01*
X133042380Y-105171904D02*
X133042380Y-104552857D01*
X133423333Y-104886190D01*
X133423333Y-104743333D01*
X133470952Y-104648095D01*
X133518571Y-104600476D01*
X133613809Y-104552857D01*
X133851904Y-104552857D01*
X133947142Y-104600476D01*
X133994761Y-104648095D01*
X134042380Y-104743333D01*
X134042380Y-105029047D01*
X133994761Y-105124285D01*
X133947142Y-105171904D01*
X133042380Y-103695714D02*
X133042380Y-103886190D01*
X133090000Y-103981428D01*
X133137619Y-104029047D01*
X133280476Y-104124285D01*
X133470952Y-104171904D01*
X133851904Y-104171904D01*
X133947142Y-104124285D01*
X133994761Y-104076666D01*
X134042380Y-103981428D01*
X134042380Y-103790952D01*
X133994761Y-103695714D01*
X133947142Y-103648095D01*
X133851904Y-103600476D01*
X133613809Y-103600476D01*
X133518571Y-103648095D01*
X133470952Y-103695714D01*
X133423333Y-103790952D01*
X133423333Y-103981428D01*
X133470952Y-104076666D01*
X133518571Y-104124285D01*
X133613809Y-104171904D01*
X125104761Y-107219523D02*
X125152380Y-107076666D01*
X125152380Y-106838571D01*
X125104761Y-106743333D01*
X125057142Y-106695714D01*
X124961904Y-106648095D01*
X124866666Y-106648095D01*
X124771428Y-106695714D01*
X124723809Y-106743333D01*
X124676190Y-106838571D01*
X124628571Y-107029047D01*
X124580952Y-107124285D01*
X124533333Y-107171904D01*
X124438095Y-107219523D01*
X124342857Y-107219523D01*
X124247619Y-107171904D01*
X124200000Y-107124285D01*
X124152380Y-107029047D01*
X124152380Y-106790952D01*
X124200000Y-106648095D01*
X124152380Y-106314761D02*
X125152380Y-106076666D01*
X124438095Y-105886190D01*
X125152380Y-105695714D01*
X124152380Y-105457619D01*
X124152380Y-105171904D02*
X124152380Y-104552857D01*
X124533333Y-104886190D01*
X124533333Y-104743333D01*
X124580952Y-104648095D01*
X124628571Y-104600476D01*
X124723809Y-104552857D01*
X124961904Y-104552857D01*
X125057142Y-104600476D01*
X125104761Y-104648095D01*
X125152380Y-104743333D01*
X125152380Y-105029047D01*
X125104761Y-105124285D01*
X125057142Y-105171904D01*
X124152380Y-103648095D02*
X124152380Y-104124285D01*
X124628571Y-104171904D01*
X124580952Y-104124285D01*
X124533333Y-104029047D01*
X124533333Y-103790952D01*
X124580952Y-103695714D01*
X124628571Y-103648095D01*
X124723809Y-103600476D01*
X124961904Y-103600476D01*
X125057142Y-103648095D01*
X125104761Y-103695714D01*
X125152380Y-103790952D01*
X125152380Y-104029047D01*
X125104761Y-104124285D01*
X125057142Y-104171904D01*
X151429761Y-95619523D02*
X151477380Y-95476666D01*
X151477380Y-95238571D01*
X151429761Y-95143333D01*
X151382142Y-95095714D01*
X151286904Y-95048095D01*
X151191666Y-95048095D01*
X151096428Y-95095714D01*
X151048809Y-95143333D01*
X151001190Y-95238571D01*
X150953571Y-95429047D01*
X150905952Y-95524285D01*
X150858333Y-95571904D01*
X150763095Y-95619523D01*
X150667857Y-95619523D01*
X150572619Y-95571904D01*
X150525000Y-95524285D01*
X150477380Y-95429047D01*
X150477380Y-95190952D01*
X150525000Y-95048095D01*
X150477380Y-94714761D02*
X151477380Y-94476666D01*
X150763095Y-94286190D01*
X151477380Y-94095714D01*
X150477380Y-93857619D01*
X150477380Y-93571904D02*
X150477380Y-92952857D01*
X150858333Y-93286190D01*
X150858333Y-93143333D01*
X150905952Y-93048095D01*
X150953571Y-93000476D01*
X151048809Y-92952857D01*
X151286904Y-92952857D01*
X151382142Y-93000476D01*
X151429761Y-93048095D01*
X151477380Y-93143333D01*
X151477380Y-93429047D01*
X151429761Y-93524285D01*
X151382142Y-93571904D01*
X150810714Y-92095714D02*
X151477380Y-92095714D01*
X150429761Y-92333809D02*
X151144047Y-92571904D01*
X151144047Y-91952857D01*
X142884761Y-95789523D02*
X142932380Y-95646666D01*
X142932380Y-95408571D01*
X142884761Y-95313333D01*
X142837142Y-95265714D01*
X142741904Y-95218095D01*
X142646666Y-95218095D01*
X142551428Y-95265714D01*
X142503809Y-95313333D01*
X142456190Y-95408571D01*
X142408571Y-95599047D01*
X142360952Y-95694285D01*
X142313333Y-95741904D01*
X142218095Y-95789523D01*
X142122857Y-95789523D01*
X142027619Y-95741904D01*
X141980000Y-95694285D01*
X141932380Y-95599047D01*
X141932380Y-95360952D01*
X141980000Y-95218095D01*
X141932380Y-94884761D02*
X142932380Y-94646666D01*
X142218095Y-94456190D01*
X142932380Y-94265714D01*
X141932380Y-94027619D01*
X141932380Y-93741904D02*
X141932380Y-93122857D01*
X142313333Y-93456190D01*
X142313333Y-93313333D01*
X142360952Y-93218095D01*
X142408571Y-93170476D01*
X142503809Y-93122857D01*
X142741904Y-93122857D01*
X142837142Y-93170476D01*
X142884761Y-93218095D01*
X142932380Y-93313333D01*
X142932380Y-93599047D01*
X142884761Y-93694285D01*
X142837142Y-93741904D01*
X141932380Y-92789523D02*
X141932380Y-92170476D01*
X142313333Y-92503809D01*
X142313333Y-92360952D01*
X142360952Y-92265714D01*
X142408571Y-92218095D01*
X142503809Y-92170476D01*
X142741904Y-92170476D01*
X142837142Y-92218095D01*
X142884761Y-92265714D01*
X142932380Y-92360952D01*
X142932380Y-92646666D01*
X142884761Y-92741904D01*
X142837142Y-92789523D01*
X133994761Y-95789523D02*
X134042380Y-95646666D01*
X134042380Y-95408571D01*
X133994761Y-95313333D01*
X133947142Y-95265714D01*
X133851904Y-95218095D01*
X133756666Y-95218095D01*
X133661428Y-95265714D01*
X133613809Y-95313333D01*
X133566190Y-95408571D01*
X133518571Y-95599047D01*
X133470952Y-95694285D01*
X133423333Y-95741904D01*
X133328095Y-95789523D01*
X133232857Y-95789523D01*
X133137619Y-95741904D01*
X133090000Y-95694285D01*
X133042380Y-95599047D01*
X133042380Y-95360952D01*
X133090000Y-95218095D01*
X133042380Y-94884761D02*
X134042380Y-94646666D01*
X133328095Y-94456190D01*
X134042380Y-94265714D01*
X133042380Y-94027619D01*
X133042380Y-93741904D02*
X133042380Y-93122857D01*
X133423333Y-93456190D01*
X133423333Y-93313333D01*
X133470952Y-93218095D01*
X133518571Y-93170476D01*
X133613809Y-93122857D01*
X133851904Y-93122857D01*
X133947142Y-93170476D01*
X133994761Y-93218095D01*
X134042380Y-93313333D01*
X134042380Y-93599047D01*
X133994761Y-93694285D01*
X133947142Y-93741904D01*
X133137619Y-92741904D02*
X133090000Y-92694285D01*
X133042380Y-92599047D01*
X133042380Y-92360952D01*
X133090000Y-92265714D01*
X133137619Y-92218095D01*
X133232857Y-92170476D01*
X133328095Y-92170476D01*
X133470952Y-92218095D01*
X134042380Y-92789523D01*
X134042380Y-92170476D01*
X125104761Y-95789523D02*
X125152380Y-95646666D01*
X125152380Y-95408571D01*
X125104761Y-95313333D01*
X125057142Y-95265714D01*
X124961904Y-95218095D01*
X124866666Y-95218095D01*
X124771428Y-95265714D01*
X124723809Y-95313333D01*
X124676190Y-95408571D01*
X124628571Y-95599047D01*
X124580952Y-95694285D01*
X124533333Y-95741904D01*
X124438095Y-95789523D01*
X124342857Y-95789523D01*
X124247619Y-95741904D01*
X124200000Y-95694285D01*
X124152380Y-95599047D01*
X124152380Y-95360952D01*
X124200000Y-95218095D01*
X124152380Y-94884761D02*
X125152380Y-94646666D01*
X124438095Y-94456190D01*
X125152380Y-94265714D01*
X124152380Y-94027619D01*
X124152380Y-93741904D02*
X124152380Y-93122857D01*
X124533333Y-93456190D01*
X124533333Y-93313333D01*
X124580952Y-93218095D01*
X124628571Y-93170476D01*
X124723809Y-93122857D01*
X124961904Y-93122857D01*
X125057142Y-93170476D01*
X125104761Y-93218095D01*
X125152380Y-93313333D01*
X125152380Y-93599047D01*
X125104761Y-93694285D01*
X125057142Y-93741904D01*
X125152380Y-92170476D02*
X125152380Y-92741904D01*
X125152380Y-92456190D02*
X124152380Y-92456190D01*
X124295238Y-92551428D01*
X124390476Y-92646666D01*
X124438095Y-92741904D01*
X151484761Y-130079523D02*
X151532380Y-129936666D01*
X151532380Y-129698571D01*
X151484761Y-129603333D01*
X151437142Y-129555714D01*
X151341904Y-129508095D01*
X151246666Y-129508095D01*
X151151428Y-129555714D01*
X151103809Y-129603333D01*
X151056190Y-129698571D01*
X151008571Y-129889047D01*
X150960952Y-129984285D01*
X150913333Y-130031904D01*
X150818095Y-130079523D01*
X150722857Y-130079523D01*
X150627619Y-130031904D01*
X150580000Y-129984285D01*
X150532380Y-129889047D01*
X150532380Y-129650952D01*
X150580000Y-129508095D01*
X150532380Y-129174761D02*
X151532380Y-128936666D01*
X150818095Y-128746190D01*
X151532380Y-128555714D01*
X150532380Y-128317619D01*
X150532380Y-128031904D02*
X150532380Y-127412857D01*
X150913333Y-127746190D01*
X150913333Y-127603333D01*
X150960952Y-127508095D01*
X151008571Y-127460476D01*
X151103809Y-127412857D01*
X151341904Y-127412857D01*
X151437142Y-127460476D01*
X151484761Y-127508095D01*
X151532380Y-127603333D01*
X151532380Y-127889047D01*
X151484761Y-127984285D01*
X151437142Y-128031904D01*
X150532380Y-126793809D02*
X150532380Y-126698571D01*
X150580000Y-126603333D01*
X150627619Y-126555714D01*
X150722857Y-126508095D01*
X150913333Y-126460476D01*
X151151428Y-126460476D01*
X151341904Y-126508095D01*
X151437142Y-126555714D01*
X151484761Y-126603333D01*
X151532380Y-126698571D01*
X151532380Y-126793809D01*
X151484761Y-126889047D01*
X151437142Y-126936666D01*
X151341904Y-126984285D01*
X151151428Y-127031904D01*
X150913333Y-127031904D01*
X150722857Y-126984285D01*
X150627619Y-126936666D01*
X150580000Y-126889047D01*
X150532380Y-126793809D01*
X80654761Y-118649523D02*
X80702380Y-118506666D01*
X80702380Y-118268571D01*
X80654761Y-118173333D01*
X80607142Y-118125714D01*
X80511904Y-118078095D01*
X80416666Y-118078095D01*
X80321428Y-118125714D01*
X80273809Y-118173333D01*
X80226190Y-118268571D01*
X80178571Y-118459047D01*
X80130952Y-118554285D01*
X80083333Y-118601904D01*
X79988095Y-118649523D01*
X79892857Y-118649523D01*
X79797619Y-118601904D01*
X79750000Y-118554285D01*
X79702380Y-118459047D01*
X79702380Y-118220952D01*
X79750000Y-118078095D01*
X79702380Y-117744761D02*
X80702380Y-117506666D01*
X79988095Y-117316190D01*
X80702380Y-117125714D01*
X79702380Y-116887619D01*
X79797619Y-116554285D02*
X79750000Y-116506666D01*
X79702380Y-116411428D01*
X79702380Y-116173333D01*
X79750000Y-116078095D01*
X79797619Y-116030476D01*
X79892857Y-115982857D01*
X79988095Y-115982857D01*
X80130952Y-116030476D01*
X80702380Y-116601904D01*
X80702380Y-115982857D01*
X79702380Y-115649523D02*
X79702380Y-114982857D01*
X80702380Y-115411428D01*
X97799761Y-107219523D02*
X97847380Y-107076666D01*
X97847380Y-106838571D01*
X97799761Y-106743333D01*
X97752142Y-106695714D01*
X97656904Y-106648095D01*
X97561666Y-106648095D01*
X97466428Y-106695714D01*
X97418809Y-106743333D01*
X97371190Y-106838571D01*
X97323571Y-107029047D01*
X97275952Y-107124285D01*
X97228333Y-107171904D01*
X97133095Y-107219523D01*
X97037857Y-107219523D01*
X96942619Y-107171904D01*
X96895000Y-107124285D01*
X96847380Y-107029047D01*
X96847380Y-106790952D01*
X96895000Y-106648095D01*
X96847380Y-106314761D02*
X97847380Y-106076666D01*
X97133095Y-105886190D01*
X97847380Y-105695714D01*
X96847380Y-105457619D01*
X96942619Y-105124285D02*
X96895000Y-105076666D01*
X96847380Y-104981428D01*
X96847380Y-104743333D01*
X96895000Y-104648095D01*
X96942619Y-104600476D01*
X97037857Y-104552857D01*
X97133095Y-104552857D01*
X97275952Y-104600476D01*
X97847380Y-105171904D01*
X97847380Y-104552857D01*
X96847380Y-103695714D02*
X96847380Y-103886190D01*
X96895000Y-103981428D01*
X96942619Y-104029047D01*
X97085476Y-104124285D01*
X97275952Y-104171904D01*
X97656904Y-104171904D01*
X97752142Y-104124285D01*
X97799761Y-104076666D01*
X97847380Y-103981428D01*
X97847380Y-103790952D01*
X97799761Y-103695714D01*
X97752142Y-103648095D01*
X97656904Y-103600476D01*
X97418809Y-103600476D01*
X97323571Y-103648095D01*
X97275952Y-103695714D01*
X97228333Y-103790952D01*
X97228333Y-103981428D01*
X97275952Y-104076666D01*
X97323571Y-104124285D01*
X97418809Y-104171904D01*
X89199761Y-107219523D02*
X89247380Y-107076666D01*
X89247380Y-106838571D01*
X89199761Y-106743333D01*
X89152142Y-106695714D01*
X89056904Y-106648095D01*
X88961666Y-106648095D01*
X88866428Y-106695714D01*
X88818809Y-106743333D01*
X88771190Y-106838571D01*
X88723571Y-107029047D01*
X88675952Y-107124285D01*
X88628333Y-107171904D01*
X88533095Y-107219523D01*
X88437857Y-107219523D01*
X88342619Y-107171904D01*
X88295000Y-107124285D01*
X88247380Y-107029047D01*
X88247380Y-106790952D01*
X88295000Y-106648095D01*
X88247380Y-106314761D02*
X89247380Y-106076666D01*
X88533095Y-105886190D01*
X89247380Y-105695714D01*
X88247380Y-105457619D01*
X88342619Y-105124285D02*
X88295000Y-105076666D01*
X88247380Y-104981428D01*
X88247380Y-104743333D01*
X88295000Y-104648095D01*
X88342619Y-104600476D01*
X88437857Y-104552857D01*
X88533095Y-104552857D01*
X88675952Y-104600476D01*
X89247380Y-105171904D01*
X89247380Y-104552857D01*
X88247380Y-103648095D02*
X88247380Y-104124285D01*
X88723571Y-104171904D01*
X88675952Y-104124285D01*
X88628333Y-104029047D01*
X88628333Y-103790952D01*
X88675952Y-103695714D01*
X88723571Y-103648095D01*
X88818809Y-103600476D01*
X89056904Y-103600476D01*
X89152142Y-103648095D01*
X89199761Y-103695714D01*
X89247380Y-103790952D01*
X89247380Y-104029047D01*
X89199761Y-104124285D01*
X89152142Y-104171904D01*
X80654761Y-107219523D02*
X80702380Y-107076666D01*
X80702380Y-106838571D01*
X80654761Y-106743333D01*
X80607142Y-106695714D01*
X80511904Y-106648095D01*
X80416666Y-106648095D01*
X80321428Y-106695714D01*
X80273809Y-106743333D01*
X80226190Y-106838571D01*
X80178571Y-107029047D01*
X80130952Y-107124285D01*
X80083333Y-107171904D01*
X79988095Y-107219523D01*
X79892857Y-107219523D01*
X79797619Y-107171904D01*
X79750000Y-107124285D01*
X79702380Y-107029047D01*
X79702380Y-106790952D01*
X79750000Y-106648095D01*
X79702380Y-106314761D02*
X80702380Y-106076666D01*
X79988095Y-105886190D01*
X80702380Y-105695714D01*
X79702380Y-105457619D01*
X79797619Y-105124285D02*
X79750000Y-105076666D01*
X79702380Y-104981428D01*
X79702380Y-104743333D01*
X79750000Y-104648095D01*
X79797619Y-104600476D01*
X79892857Y-104552857D01*
X79988095Y-104552857D01*
X80130952Y-104600476D01*
X80702380Y-105171904D01*
X80702380Y-104552857D01*
X80035714Y-103695714D02*
X80702380Y-103695714D01*
X79654761Y-103933809D02*
X80369047Y-104171904D01*
X80369047Y-103552857D01*
X97799761Y-95789523D02*
X97847380Y-95646666D01*
X97847380Y-95408571D01*
X97799761Y-95313333D01*
X97752142Y-95265714D01*
X97656904Y-95218095D01*
X97561666Y-95218095D01*
X97466428Y-95265714D01*
X97418809Y-95313333D01*
X97371190Y-95408571D01*
X97323571Y-95599047D01*
X97275952Y-95694285D01*
X97228333Y-95741904D01*
X97133095Y-95789523D01*
X97037857Y-95789523D01*
X96942619Y-95741904D01*
X96895000Y-95694285D01*
X96847380Y-95599047D01*
X96847380Y-95360952D01*
X96895000Y-95218095D01*
X96847380Y-94884761D02*
X97847380Y-94646666D01*
X97133095Y-94456190D01*
X97847380Y-94265714D01*
X96847380Y-94027619D01*
X96942619Y-93694285D02*
X96895000Y-93646666D01*
X96847380Y-93551428D01*
X96847380Y-93313333D01*
X96895000Y-93218095D01*
X96942619Y-93170476D01*
X97037857Y-93122857D01*
X97133095Y-93122857D01*
X97275952Y-93170476D01*
X97847380Y-93741904D01*
X97847380Y-93122857D01*
X96847380Y-92789523D02*
X96847380Y-92170476D01*
X97228333Y-92503809D01*
X97228333Y-92360952D01*
X97275952Y-92265714D01*
X97323571Y-92218095D01*
X97418809Y-92170476D01*
X97656904Y-92170476D01*
X97752142Y-92218095D01*
X97799761Y-92265714D01*
X97847380Y-92360952D01*
X97847380Y-92646666D01*
X97799761Y-92741904D01*
X97752142Y-92789523D01*
X89254761Y-95789523D02*
X89302380Y-95646666D01*
X89302380Y-95408571D01*
X89254761Y-95313333D01*
X89207142Y-95265714D01*
X89111904Y-95218095D01*
X89016666Y-95218095D01*
X88921428Y-95265714D01*
X88873809Y-95313333D01*
X88826190Y-95408571D01*
X88778571Y-95599047D01*
X88730952Y-95694285D01*
X88683333Y-95741904D01*
X88588095Y-95789523D01*
X88492857Y-95789523D01*
X88397619Y-95741904D01*
X88350000Y-95694285D01*
X88302380Y-95599047D01*
X88302380Y-95360952D01*
X88350000Y-95218095D01*
X88302380Y-94884761D02*
X89302380Y-94646666D01*
X88588095Y-94456190D01*
X89302380Y-94265714D01*
X88302380Y-94027619D01*
X88397619Y-93694285D02*
X88350000Y-93646666D01*
X88302380Y-93551428D01*
X88302380Y-93313333D01*
X88350000Y-93218095D01*
X88397619Y-93170476D01*
X88492857Y-93122857D01*
X88588095Y-93122857D01*
X88730952Y-93170476D01*
X89302380Y-93741904D01*
X89302380Y-93122857D01*
X88397619Y-92741904D02*
X88350000Y-92694285D01*
X88302380Y-92599047D01*
X88302380Y-92360952D01*
X88350000Y-92265714D01*
X88397619Y-92218095D01*
X88492857Y-92170476D01*
X88588095Y-92170476D01*
X88730952Y-92218095D01*
X89302380Y-92789523D01*
X89302380Y-92170476D01*
X80654761Y-95789523D02*
X80702380Y-95646666D01*
X80702380Y-95408571D01*
X80654761Y-95313333D01*
X80607142Y-95265714D01*
X80511904Y-95218095D01*
X80416666Y-95218095D01*
X80321428Y-95265714D01*
X80273809Y-95313333D01*
X80226190Y-95408571D01*
X80178571Y-95599047D01*
X80130952Y-95694285D01*
X80083333Y-95741904D01*
X79988095Y-95789523D01*
X79892857Y-95789523D01*
X79797619Y-95741904D01*
X79750000Y-95694285D01*
X79702380Y-95599047D01*
X79702380Y-95360952D01*
X79750000Y-95218095D01*
X79702380Y-94884761D02*
X80702380Y-94646666D01*
X79988095Y-94456190D01*
X80702380Y-94265714D01*
X79702380Y-94027619D01*
X79797619Y-93694285D02*
X79750000Y-93646666D01*
X79702380Y-93551428D01*
X79702380Y-93313333D01*
X79750000Y-93218095D01*
X79797619Y-93170476D01*
X79892857Y-93122857D01*
X79988095Y-93122857D01*
X80130952Y-93170476D01*
X80702380Y-93741904D01*
X80702380Y-93122857D01*
X80702380Y-92170476D02*
X80702380Y-92741904D01*
X80702380Y-92456190D02*
X79702380Y-92456190D01*
X79845238Y-92551428D01*
X79940476Y-92646666D01*
X79988095Y-92741904D01*
X106689761Y-118649523D02*
X106737380Y-118506666D01*
X106737380Y-118268571D01*
X106689761Y-118173333D01*
X106642142Y-118125714D01*
X106546904Y-118078095D01*
X106451666Y-118078095D01*
X106356428Y-118125714D01*
X106308809Y-118173333D01*
X106261190Y-118268571D01*
X106213571Y-118459047D01*
X106165952Y-118554285D01*
X106118333Y-118601904D01*
X106023095Y-118649523D01*
X105927857Y-118649523D01*
X105832619Y-118601904D01*
X105785000Y-118554285D01*
X105737380Y-118459047D01*
X105737380Y-118220952D01*
X105785000Y-118078095D01*
X105737380Y-117744761D02*
X106737380Y-117506666D01*
X106023095Y-117316190D01*
X106737380Y-117125714D01*
X105737380Y-116887619D01*
X105832619Y-116554285D02*
X105785000Y-116506666D01*
X105737380Y-116411428D01*
X105737380Y-116173333D01*
X105785000Y-116078095D01*
X105832619Y-116030476D01*
X105927857Y-115982857D01*
X106023095Y-115982857D01*
X106165952Y-116030476D01*
X106737380Y-116601904D01*
X106737380Y-115982857D01*
X105737380Y-115363809D02*
X105737380Y-115268571D01*
X105785000Y-115173333D01*
X105832619Y-115125714D01*
X105927857Y-115078095D01*
X106118333Y-115030476D01*
X106356428Y-115030476D01*
X106546904Y-115078095D01*
X106642142Y-115125714D01*
X106689761Y-115173333D01*
X106737380Y-115268571D01*
X106737380Y-115363809D01*
X106689761Y-115459047D01*
X106642142Y-115506666D01*
X106546904Y-115554285D01*
X106356428Y-115601904D01*
X106118333Y-115601904D01*
X105927857Y-115554285D01*
X105832619Y-115506666D01*
X105785000Y-115459047D01*
X105737380Y-115363809D01*
X47634761Y-121189523D02*
X47682380Y-121046666D01*
X47682380Y-120808571D01*
X47634761Y-120713333D01*
X47587142Y-120665714D01*
X47491904Y-120618095D01*
X47396666Y-120618095D01*
X47301428Y-120665714D01*
X47253809Y-120713333D01*
X47206190Y-120808571D01*
X47158571Y-120999047D01*
X47110952Y-121094285D01*
X47063333Y-121141904D01*
X46968095Y-121189523D01*
X46872857Y-121189523D01*
X46777619Y-121141904D01*
X46730000Y-121094285D01*
X46682380Y-120999047D01*
X46682380Y-120760952D01*
X46730000Y-120618095D01*
X46682380Y-120284761D02*
X47682380Y-120046666D01*
X46968095Y-119856190D01*
X47682380Y-119665714D01*
X46682380Y-119427619D01*
X47682380Y-118522857D02*
X47682380Y-119094285D01*
X47682380Y-118808571D02*
X46682380Y-118808571D01*
X46825238Y-118903809D01*
X46920476Y-118999047D01*
X46968095Y-119094285D01*
X46682380Y-118189523D02*
X46682380Y-117522857D01*
X47682380Y-117951428D01*
X38744761Y-121189523D02*
X38792380Y-121046666D01*
X38792380Y-120808571D01*
X38744761Y-120713333D01*
X38697142Y-120665714D01*
X38601904Y-120618095D01*
X38506666Y-120618095D01*
X38411428Y-120665714D01*
X38363809Y-120713333D01*
X38316190Y-120808571D01*
X38268571Y-120999047D01*
X38220952Y-121094285D01*
X38173333Y-121141904D01*
X38078095Y-121189523D01*
X37982857Y-121189523D01*
X37887619Y-121141904D01*
X37840000Y-121094285D01*
X37792380Y-120999047D01*
X37792380Y-120760952D01*
X37840000Y-120618095D01*
X37792380Y-120284761D02*
X38792380Y-120046666D01*
X38078095Y-119856190D01*
X38792380Y-119665714D01*
X37792380Y-119427619D01*
X38792380Y-118522857D02*
X38792380Y-119094285D01*
X38792380Y-118808571D02*
X37792380Y-118808571D01*
X37935238Y-118903809D01*
X38030476Y-118999047D01*
X38078095Y-119094285D01*
X37792380Y-117665714D02*
X37792380Y-117856190D01*
X37840000Y-117951428D01*
X37887619Y-117999047D01*
X38030476Y-118094285D01*
X38220952Y-118141904D01*
X38601904Y-118141904D01*
X38697142Y-118094285D01*
X38744761Y-118046666D01*
X38792380Y-117951428D01*
X38792380Y-117760952D01*
X38744761Y-117665714D01*
X38697142Y-117618095D01*
X38601904Y-117570476D01*
X38363809Y-117570476D01*
X38268571Y-117618095D01*
X38220952Y-117665714D01*
X38173333Y-117760952D01*
X38173333Y-117951428D01*
X38220952Y-118046666D01*
X38268571Y-118094285D01*
X38363809Y-118141904D01*
X29854761Y-121189523D02*
X29902380Y-121046666D01*
X29902380Y-120808571D01*
X29854761Y-120713333D01*
X29807142Y-120665714D01*
X29711904Y-120618095D01*
X29616666Y-120618095D01*
X29521428Y-120665714D01*
X29473809Y-120713333D01*
X29426190Y-120808571D01*
X29378571Y-120999047D01*
X29330952Y-121094285D01*
X29283333Y-121141904D01*
X29188095Y-121189523D01*
X29092857Y-121189523D01*
X28997619Y-121141904D01*
X28950000Y-121094285D01*
X28902380Y-120999047D01*
X28902380Y-120760952D01*
X28950000Y-120618095D01*
X28902380Y-120284761D02*
X29902380Y-120046666D01*
X29188095Y-119856190D01*
X29902380Y-119665714D01*
X28902380Y-119427619D01*
X29902380Y-118522857D02*
X29902380Y-119094285D01*
X29902380Y-118808571D02*
X28902380Y-118808571D01*
X29045238Y-118903809D01*
X29140476Y-118999047D01*
X29188095Y-119094285D01*
X28902380Y-117618095D02*
X28902380Y-118094285D01*
X29378571Y-118141904D01*
X29330952Y-118094285D01*
X29283333Y-117999047D01*
X29283333Y-117760952D01*
X29330952Y-117665714D01*
X29378571Y-117618095D01*
X29473809Y-117570476D01*
X29711904Y-117570476D01*
X29807142Y-117618095D01*
X29854761Y-117665714D01*
X29902380Y-117760952D01*
X29902380Y-117999047D01*
X29854761Y-118094285D01*
X29807142Y-118141904D01*
X56524761Y-109759523D02*
X56572380Y-109616666D01*
X56572380Y-109378571D01*
X56524761Y-109283333D01*
X56477142Y-109235714D01*
X56381904Y-109188095D01*
X56286666Y-109188095D01*
X56191428Y-109235714D01*
X56143809Y-109283333D01*
X56096190Y-109378571D01*
X56048571Y-109569047D01*
X56000952Y-109664285D01*
X55953333Y-109711904D01*
X55858095Y-109759523D01*
X55762857Y-109759523D01*
X55667619Y-109711904D01*
X55620000Y-109664285D01*
X55572380Y-109569047D01*
X55572380Y-109330952D01*
X55620000Y-109188095D01*
X55572380Y-108854761D02*
X56572380Y-108616666D01*
X55858095Y-108426190D01*
X56572380Y-108235714D01*
X55572380Y-107997619D01*
X56572380Y-107092857D02*
X56572380Y-107664285D01*
X56572380Y-107378571D02*
X55572380Y-107378571D01*
X55715238Y-107473809D01*
X55810476Y-107569047D01*
X55858095Y-107664285D01*
X55905714Y-106235714D02*
X56572380Y-106235714D01*
X55524761Y-106473809D02*
X56239047Y-106711904D01*
X56239047Y-106092857D01*
X47634761Y-109759523D02*
X47682380Y-109616666D01*
X47682380Y-109378571D01*
X47634761Y-109283333D01*
X47587142Y-109235714D01*
X47491904Y-109188095D01*
X47396666Y-109188095D01*
X47301428Y-109235714D01*
X47253809Y-109283333D01*
X47206190Y-109378571D01*
X47158571Y-109569047D01*
X47110952Y-109664285D01*
X47063333Y-109711904D01*
X46968095Y-109759523D01*
X46872857Y-109759523D01*
X46777619Y-109711904D01*
X46730000Y-109664285D01*
X46682380Y-109569047D01*
X46682380Y-109330952D01*
X46730000Y-109188095D01*
X46682380Y-108854761D02*
X47682380Y-108616666D01*
X46968095Y-108426190D01*
X47682380Y-108235714D01*
X46682380Y-107997619D01*
X47682380Y-107092857D02*
X47682380Y-107664285D01*
X47682380Y-107378571D02*
X46682380Y-107378571D01*
X46825238Y-107473809D01*
X46920476Y-107569047D01*
X46968095Y-107664285D01*
X46682380Y-106759523D02*
X46682380Y-106140476D01*
X47063333Y-106473809D01*
X47063333Y-106330952D01*
X47110952Y-106235714D01*
X47158571Y-106188095D01*
X47253809Y-106140476D01*
X47491904Y-106140476D01*
X47587142Y-106188095D01*
X47634761Y-106235714D01*
X47682380Y-106330952D01*
X47682380Y-106616666D01*
X47634761Y-106711904D01*
X47587142Y-106759523D01*
X38744761Y-109759523D02*
X38792380Y-109616666D01*
X38792380Y-109378571D01*
X38744761Y-109283333D01*
X38697142Y-109235714D01*
X38601904Y-109188095D01*
X38506666Y-109188095D01*
X38411428Y-109235714D01*
X38363809Y-109283333D01*
X38316190Y-109378571D01*
X38268571Y-109569047D01*
X38220952Y-109664285D01*
X38173333Y-109711904D01*
X38078095Y-109759523D01*
X37982857Y-109759523D01*
X37887619Y-109711904D01*
X37840000Y-109664285D01*
X37792380Y-109569047D01*
X37792380Y-109330952D01*
X37840000Y-109188095D01*
X37792380Y-108854761D02*
X38792380Y-108616666D01*
X38078095Y-108426190D01*
X38792380Y-108235714D01*
X37792380Y-107997619D01*
X38792380Y-107092857D02*
X38792380Y-107664285D01*
X38792380Y-107378571D02*
X37792380Y-107378571D01*
X37935238Y-107473809D01*
X38030476Y-107569047D01*
X38078095Y-107664285D01*
X37887619Y-106711904D02*
X37840000Y-106664285D01*
X37792380Y-106569047D01*
X37792380Y-106330952D01*
X37840000Y-106235714D01*
X37887619Y-106188095D01*
X37982857Y-106140476D01*
X38078095Y-106140476D01*
X38220952Y-106188095D01*
X38792380Y-106759523D01*
X38792380Y-106140476D01*
X29854761Y-109759523D02*
X29902380Y-109616666D01*
X29902380Y-109378571D01*
X29854761Y-109283333D01*
X29807142Y-109235714D01*
X29711904Y-109188095D01*
X29616666Y-109188095D01*
X29521428Y-109235714D01*
X29473809Y-109283333D01*
X29426190Y-109378571D01*
X29378571Y-109569047D01*
X29330952Y-109664285D01*
X29283333Y-109711904D01*
X29188095Y-109759523D01*
X29092857Y-109759523D01*
X28997619Y-109711904D01*
X28950000Y-109664285D01*
X28902380Y-109569047D01*
X28902380Y-109330952D01*
X28950000Y-109188095D01*
X28902380Y-108854761D02*
X29902380Y-108616666D01*
X29188095Y-108426190D01*
X29902380Y-108235714D01*
X28902380Y-107997619D01*
X29902380Y-107092857D02*
X29902380Y-107664285D01*
X29902380Y-107378571D02*
X28902380Y-107378571D01*
X29045238Y-107473809D01*
X29140476Y-107569047D01*
X29188095Y-107664285D01*
X29902380Y-106140476D02*
X29902380Y-106711904D01*
X29902380Y-106426190D02*
X28902380Y-106426190D01*
X29045238Y-106521428D01*
X29140476Y-106616666D01*
X29188095Y-106711904D01*
X56524761Y-121189523D02*
X56572380Y-121046666D01*
X56572380Y-120808571D01*
X56524761Y-120713333D01*
X56477142Y-120665714D01*
X56381904Y-120618095D01*
X56286666Y-120618095D01*
X56191428Y-120665714D01*
X56143809Y-120713333D01*
X56096190Y-120808571D01*
X56048571Y-120999047D01*
X56000952Y-121094285D01*
X55953333Y-121141904D01*
X55858095Y-121189523D01*
X55762857Y-121189523D01*
X55667619Y-121141904D01*
X55620000Y-121094285D01*
X55572380Y-120999047D01*
X55572380Y-120760952D01*
X55620000Y-120618095D01*
X55572380Y-120284761D02*
X56572380Y-120046666D01*
X55858095Y-119856190D01*
X56572380Y-119665714D01*
X55572380Y-119427619D01*
X56572380Y-118522857D02*
X56572380Y-119094285D01*
X56572380Y-118808571D02*
X55572380Y-118808571D01*
X55715238Y-118903809D01*
X55810476Y-118999047D01*
X55858095Y-119094285D01*
X55572380Y-117903809D02*
X55572380Y-117808571D01*
X55620000Y-117713333D01*
X55667619Y-117665714D01*
X55762857Y-117618095D01*
X55953333Y-117570476D01*
X56191428Y-117570476D01*
X56381904Y-117618095D01*
X56477142Y-117665714D01*
X56524761Y-117713333D01*
X56572380Y-117808571D01*
X56572380Y-117903809D01*
X56524761Y-117999047D01*
X56477142Y-118046666D01*
X56381904Y-118094285D01*
X56191428Y-118141904D01*
X55953333Y-118141904D01*
X55762857Y-118094285D01*
X55667619Y-118046666D01*
X55620000Y-117999047D01*
X55572380Y-117903809D01*
X65414761Y-109759523D02*
X65462380Y-109616666D01*
X65462380Y-109378571D01*
X65414761Y-109283333D01*
X65367142Y-109235714D01*
X65271904Y-109188095D01*
X65176666Y-109188095D01*
X65081428Y-109235714D01*
X65033809Y-109283333D01*
X64986190Y-109378571D01*
X64938571Y-109569047D01*
X64890952Y-109664285D01*
X64843333Y-109711904D01*
X64748095Y-109759523D01*
X64652857Y-109759523D01*
X64557619Y-109711904D01*
X64510000Y-109664285D01*
X64462380Y-109569047D01*
X64462380Y-109330952D01*
X64510000Y-109188095D01*
X64462380Y-108854761D02*
X65462380Y-108616666D01*
X64748095Y-108426190D01*
X65462380Y-108235714D01*
X64462380Y-107997619D01*
X64462380Y-107426190D02*
X64462380Y-107330952D01*
X64510000Y-107235714D01*
X64557619Y-107188095D01*
X64652857Y-107140476D01*
X64843333Y-107092857D01*
X65081428Y-107092857D01*
X65271904Y-107140476D01*
X65367142Y-107188095D01*
X65414761Y-107235714D01*
X65462380Y-107330952D01*
X65462380Y-107426190D01*
X65414761Y-107521428D01*
X65367142Y-107569047D01*
X65271904Y-107616666D01*
X65081428Y-107664285D01*
X64843333Y-107664285D01*
X64652857Y-107616666D01*
X64557619Y-107569047D01*
X64510000Y-107521428D01*
X64462380Y-107426190D01*
X64462380Y-106759523D02*
X64462380Y-106092857D01*
X65462380Y-106521428D01*
X48904761Y-95789523D02*
X48952380Y-95646666D01*
X48952380Y-95408571D01*
X48904761Y-95313333D01*
X48857142Y-95265714D01*
X48761904Y-95218095D01*
X48666666Y-95218095D01*
X48571428Y-95265714D01*
X48523809Y-95313333D01*
X48476190Y-95408571D01*
X48428571Y-95599047D01*
X48380952Y-95694285D01*
X48333333Y-95741904D01*
X48238095Y-95789523D01*
X48142857Y-95789523D01*
X48047619Y-95741904D01*
X48000000Y-95694285D01*
X47952380Y-95599047D01*
X47952380Y-95360952D01*
X48000000Y-95218095D01*
X47952380Y-94884761D02*
X48952380Y-94646666D01*
X48238095Y-94456190D01*
X48952380Y-94265714D01*
X47952380Y-94027619D01*
X47952380Y-93456190D02*
X47952380Y-93360952D01*
X48000000Y-93265714D01*
X48047619Y-93218095D01*
X48142857Y-93170476D01*
X48333333Y-93122857D01*
X48571428Y-93122857D01*
X48761904Y-93170476D01*
X48857142Y-93218095D01*
X48904761Y-93265714D01*
X48952380Y-93360952D01*
X48952380Y-93456190D01*
X48904761Y-93551428D01*
X48857142Y-93599047D01*
X48761904Y-93646666D01*
X48571428Y-93694285D01*
X48333333Y-93694285D01*
X48142857Y-93646666D01*
X48047619Y-93599047D01*
X48000000Y-93551428D01*
X47952380Y-93456190D01*
X47952380Y-92265714D02*
X47952380Y-92456190D01*
X48000000Y-92551428D01*
X48047619Y-92599047D01*
X48190476Y-92694285D01*
X48380952Y-92741904D01*
X48761904Y-92741904D01*
X48857142Y-92694285D01*
X48904761Y-92646666D01*
X48952380Y-92551428D01*
X48952380Y-92360952D01*
X48904761Y-92265714D01*
X48857142Y-92218095D01*
X48761904Y-92170476D01*
X48523809Y-92170476D01*
X48428571Y-92218095D01*
X48380952Y-92265714D01*
X48333333Y-92360952D01*
X48333333Y-92551428D01*
X48380952Y-92646666D01*
X48428571Y-92694285D01*
X48523809Y-92741904D01*
X160954761Y-95789523D02*
X161002380Y-95646666D01*
X161002380Y-95408571D01*
X160954761Y-95313333D01*
X160907142Y-95265714D01*
X160811904Y-95218095D01*
X160716666Y-95218095D01*
X160621428Y-95265714D01*
X160573809Y-95313333D01*
X160526190Y-95408571D01*
X160478571Y-95599047D01*
X160430952Y-95694285D01*
X160383333Y-95741904D01*
X160288095Y-95789523D01*
X160192857Y-95789523D01*
X160097619Y-95741904D01*
X160050000Y-95694285D01*
X160002380Y-95599047D01*
X160002380Y-95360952D01*
X160050000Y-95218095D01*
X160002380Y-94884761D02*
X161002380Y-94646666D01*
X160288095Y-94456190D01*
X161002380Y-94265714D01*
X160002380Y-94027619D01*
X160002380Y-93456190D02*
X160002380Y-93360952D01*
X160050000Y-93265714D01*
X160097619Y-93218095D01*
X160192857Y-93170476D01*
X160383333Y-93122857D01*
X160621428Y-93122857D01*
X160811904Y-93170476D01*
X160907142Y-93218095D01*
X160954761Y-93265714D01*
X161002380Y-93360952D01*
X161002380Y-93456190D01*
X160954761Y-93551428D01*
X160907142Y-93599047D01*
X160811904Y-93646666D01*
X160621428Y-93694285D01*
X160383333Y-93694285D01*
X160192857Y-93646666D01*
X160097619Y-93599047D01*
X160050000Y-93551428D01*
X160002380Y-93456190D01*
X160002380Y-92218095D02*
X160002380Y-92694285D01*
X160478571Y-92741904D01*
X160430952Y-92694285D01*
X160383333Y-92599047D01*
X160383333Y-92360952D01*
X160430952Y-92265714D01*
X160478571Y-92218095D01*
X160573809Y-92170476D01*
X160811904Y-92170476D01*
X160907142Y-92218095D01*
X160954761Y-92265714D01*
X161002380Y-92360952D01*
X161002380Y-92599047D01*
X160954761Y-92694285D01*
X160907142Y-92741904D01*
X106689761Y-95789523D02*
X106737380Y-95646666D01*
X106737380Y-95408571D01*
X106689761Y-95313333D01*
X106642142Y-95265714D01*
X106546904Y-95218095D01*
X106451666Y-95218095D01*
X106356428Y-95265714D01*
X106308809Y-95313333D01*
X106261190Y-95408571D01*
X106213571Y-95599047D01*
X106165952Y-95694285D01*
X106118333Y-95741904D01*
X106023095Y-95789523D01*
X105927857Y-95789523D01*
X105832619Y-95741904D01*
X105785000Y-95694285D01*
X105737380Y-95599047D01*
X105737380Y-95360952D01*
X105785000Y-95218095D01*
X105737380Y-94884761D02*
X106737380Y-94646666D01*
X106023095Y-94456190D01*
X106737380Y-94265714D01*
X105737380Y-94027619D01*
X105737380Y-93456190D02*
X105737380Y-93360952D01*
X105785000Y-93265714D01*
X105832619Y-93218095D01*
X105927857Y-93170476D01*
X106118333Y-93122857D01*
X106356428Y-93122857D01*
X106546904Y-93170476D01*
X106642142Y-93218095D01*
X106689761Y-93265714D01*
X106737380Y-93360952D01*
X106737380Y-93456190D01*
X106689761Y-93551428D01*
X106642142Y-93599047D01*
X106546904Y-93646666D01*
X106356428Y-93694285D01*
X106118333Y-93694285D01*
X105927857Y-93646666D01*
X105832619Y-93599047D01*
X105785000Y-93551428D01*
X105737380Y-93456190D01*
X106070714Y-92265714D02*
X106737380Y-92265714D01*
X105689761Y-92503809D02*
X106404047Y-92741904D01*
X106404047Y-92122857D01*
X97799761Y-118649523D02*
X97847380Y-118506666D01*
X97847380Y-118268571D01*
X97799761Y-118173333D01*
X97752142Y-118125714D01*
X97656904Y-118078095D01*
X97561666Y-118078095D01*
X97466428Y-118125714D01*
X97418809Y-118173333D01*
X97371190Y-118268571D01*
X97323571Y-118459047D01*
X97275952Y-118554285D01*
X97228333Y-118601904D01*
X97133095Y-118649523D01*
X97037857Y-118649523D01*
X96942619Y-118601904D01*
X96895000Y-118554285D01*
X96847380Y-118459047D01*
X96847380Y-118220952D01*
X96895000Y-118078095D01*
X96847380Y-117744761D02*
X97847380Y-117506666D01*
X97133095Y-117316190D01*
X97847380Y-117125714D01*
X96847380Y-116887619D01*
X96847380Y-116316190D02*
X96847380Y-116220952D01*
X96895000Y-116125714D01*
X96942619Y-116078095D01*
X97037857Y-116030476D01*
X97228333Y-115982857D01*
X97466428Y-115982857D01*
X97656904Y-116030476D01*
X97752142Y-116078095D01*
X97799761Y-116125714D01*
X97847380Y-116220952D01*
X97847380Y-116316190D01*
X97799761Y-116411428D01*
X97752142Y-116459047D01*
X97656904Y-116506666D01*
X97466428Y-116554285D01*
X97228333Y-116554285D01*
X97037857Y-116506666D01*
X96942619Y-116459047D01*
X96895000Y-116411428D01*
X96847380Y-116316190D01*
X96847380Y-115649523D02*
X96847380Y-115030476D01*
X97228333Y-115363809D01*
X97228333Y-115220952D01*
X97275952Y-115125714D01*
X97323571Y-115078095D01*
X97418809Y-115030476D01*
X97656904Y-115030476D01*
X97752142Y-115078095D01*
X97799761Y-115125714D01*
X97847380Y-115220952D01*
X97847380Y-115506666D01*
X97799761Y-115601904D01*
X97752142Y-115649523D01*
X89199761Y-118649523D02*
X89247380Y-118506666D01*
X89247380Y-118268571D01*
X89199761Y-118173333D01*
X89152142Y-118125714D01*
X89056904Y-118078095D01*
X88961666Y-118078095D01*
X88866428Y-118125714D01*
X88818809Y-118173333D01*
X88771190Y-118268571D01*
X88723571Y-118459047D01*
X88675952Y-118554285D01*
X88628333Y-118601904D01*
X88533095Y-118649523D01*
X88437857Y-118649523D01*
X88342619Y-118601904D01*
X88295000Y-118554285D01*
X88247380Y-118459047D01*
X88247380Y-118220952D01*
X88295000Y-118078095D01*
X88247380Y-117744761D02*
X89247380Y-117506666D01*
X88533095Y-117316190D01*
X89247380Y-117125714D01*
X88247380Y-116887619D01*
X88247380Y-116316190D02*
X88247380Y-116220952D01*
X88295000Y-116125714D01*
X88342619Y-116078095D01*
X88437857Y-116030476D01*
X88628333Y-115982857D01*
X88866428Y-115982857D01*
X89056904Y-116030476D01*
X89152142Y-116078095D01*
X89199761Y-116125714D01*
X89247380Y-116220952D01*
X89247380Y-116316190D01*
X89199761Y-116411428D01*
X89152142Y-116459047D01*
X89056904Y-116506666D01*
X88866428Y-116554285D01*
X88628333Y-116554285D01*
X88437857Y-116506666D01*
X88342619Y-116459047D01*
X88295000Y-116411428D01*
X88247380Y-116316190D01*
X88342619Y-115601904D02*
X88295000Y-115554285D01*
X88247380Y-115459047D01*
X88247380Y-115220952D01*
X88295000Y-115125714D01*
X88342619Y-115078095D01*
X88437857Y-115030476D01*
X88533095Y-115030476D01*
X88675952Y-115078095D01*
X89247380Y-115649523D01*
X89247380Y-115030476D01*
X29854761Y-95789523D02*
X29902380Y-95646666D01*
X29902380Y-95408571D01*
X29854761Y-95313333D01*
X29807142Y-95265714D01*
X29711904Y-95218095D01*
X29616666Y-95218095D01*
X29521428Y-95265714D01*
X29473809Y-95313333D01*
X29426190Y-95408571D01*
X29378571Y-95599047D01*
X29330952Y-95694285D01*
X29283333Y-95741904D01*
X29188095Y-95789523D01*
X29092857Y-95789523D01*
X28997619Y-95741904D01*
X28950000Y-95694285D01*
X28902380Y-95599047D01*
X28902380Y-95360952D01*
X28950000Y-95218095D01*
X28902380Y-94884761D02*
X29902380Y-94646666D01*
X29188095Y-94456190D01*
X29902380Y-94265714D01*
X28902380Y-94027619D01*
X28902380Y-93456190D02*
X28902380Y-93360952D01*
X28950000Y-93265714D01*
X28997619Y-93218095D01*
X29092857Y-93170476D01*
X29283333Y-93122857D01*
X29521428Y-93122857D01*
X29711904Y-93170476D01*
X29807142Y-93218095D01*
X29854761Y-93265714D01*
X29902380Y-93360952D01*
X29902380Y-93456190D01*
X29854761Y-93551428D01*
X29807142Y-93599047D01*
X29711904Y-93646666D01*
X29521428Y-93694285D01*
X29283333Y-93694285D01*
X29092857Y-93646666D01*
X28997619Y-93599047D01*
X28950000Y-93551428D01*
X28902380Y-93456190D01*
X29902380Y-92170476D02*
X29902380Y-92741904D01*
X29902380Y-92456190D02*
X28902380Y-92456190D01*
X29045238Y-92551428D01*
X29140476Y-92646666D01*
X29188095Y-92741904D01*
X38744761Y-95789523D02*
X38792380Y-95646666D01*
X38792380Y-95408571D01*
X38744761Y-95313333D01*
X38697142Y-95265714D01*
X38601904Y-95218095D01*
X38506666Y-95218095D01*
X38411428Y-95265714D01*
X38363809Y-95313333D01*
X38316190Y-95408571D01*
X38268571Y-95599047D01*
X38220952Y-95694285D01*
X38173333Y-95741904D01*
X38078095Y-95789523D01*
X37982857Y-95789523D01*
X37887619Y-95741904D01*
X37840000Y-95694285D01*
X37792380Y-95599047D01*
X37792380Y-95360952D01*
X37840000Y-95218095D01*
X37792380Y-94884761D02*
X38792380Y-94646666D01*
X38078095Y-94456190D01*
X38792380Y-94265714D01*
X37792380Y-94027619D01*
X37792380Y-93456190D02*
X37792380Y-93360952D01*
X37840000Y-93265714D01*
X37887619Y-93218095D01*
X37982857Y-93170476D01*
X38173333Y-93122857D01*
X38411428Y-93122857D01*
X38601904Y-93170476D01*
X38697142Y-93218095D01*
X38744761Y-93265714D01*
X38792380Y-93360952D01*
X38792380Y-93456190D01*
X38744761Y-93551428D01*
X38697142Y-93599047D01*
X38601904Y-93646666D01*
X38411428Y-93694285D01*
X38173333Y-93694285D01*
X37982857Y-93646666D01*
X37887619Y-93599047D01*
X37840000Y-93551428D01*
X37792380Y-93456190D01*
X37792380Y-92503809D02*
X37792380Y-92408571D01*
X37840000Y-92313333D01*
X37887619Y-92265714D01*
X37982857Y-92218095D01*
X38173333Y-92170476D01*
X38411428Y-92170476D01*
X38601904Y-92218095D01*
X38697142Y-92265714D01*
X38744761Y-92313333D01*
X38792380Y-92408571D01*
X38792380Y-92503809D01*
X38744761Y-92599047D01*
X38697142Y-92646666D01*
X38601904Y-92694285D01*
X38411428Y-92741904D01*
X38173333Y-92741904D01*
X37982857Y-92694285D01*
X37887619Y-92646666D01*
X37840000Y-92599047D01*
X37792380Y-92503809D01*
X105092380Y-75263333D02*
X105806666Y-75263333D01*
X105949523Y-75310952D01*
X106044761Y-75406190D01*
X106092380Y-75549047D01*
X106092380Y-75644285D01*
X106092380Y-74263333D02*
X106092380Y-74834761D01*
X106092380Y-74549047D02*
X105092380Y-74549047D01*
X105235238Y-74644285D01*
X105330476Y-74739523D01*
X105378095Y-74834761D01*
X179863809Y-26066190D02*
X179863809Y-26542380D01*
X179530476Y-25542380D02*
X179863809Y-26066190D01*
X180197142Y-25542380D01*
X181054285Y-26542380D02*
X180482857Y-26542380D01*
X180768571Y-26542380D02*
X180768571Y-25542380D01*
X180673333Y-25685238D01*
X180578095Y-25780476D01*
X180482857Y-25828095D01*
X183388095Y-53252380D02*
X183388095Y-54061904D01*
X183435714Y-54157142D01*
X183483333Y-54204761D01*
X183578571Y-54252380D01*
X183769047Y-54252380D01*
X183864285Y-54204761D01*
X183911904Y-54157142D01*
X183959523Y-54061904D01*
X183959523Y-53252380D01*
X184959523Y-54252380D02*
X184388095Y-54252380D01*
X184673809Y-54252380D02*
X184673809Y-53252380D01*
X184578571Y-53395238D01*
X184483333Y-53490476D01*
X184388095Y-53538095D01*
X182713333Y-28137142D02*
X182665714Y-28184761D01*
X182522857Y-28232380D01*
X182427619Y-28232380D01*
X182284761Y-28184761D01*
X182189523Y-28089523D01*
X182141904Y-27994285D01*
X182094285Y-27803809D01*
X182094285Y-27660952D01*
X182141904Y-27470476D01*
X182189523Y-27375238D01*
X182284761Y-27280000D01*
X182427619Y-27232380D01*
X182522857Y-27232380D01*
X182665714Y-27280000D01*
X182713333Y-27327619D01*
X183094285Y-27327619D02*
X183141904Y-27280000D01*
X183237142Y-27232380D01*
X183475238Y-27232380D01*
X183570476Y-27280000D01*
X183618095Y-27327619D01*
X183665714Y-27422857D01*
X183665714Y-27518095D01*
X183618095Y-27660952D01*
X183046666Y-28232380D01*
X183665714Y-28232380D01*
X188477142Y-28106666D02*
X188524761Y-28154285D01*
X188572380Y-28297142D01*
X188572380Y-28392380D01*
X188524761Y-28535238D01*
X188429523Y-28630476D01*
X188334285Y-28678095D01*
X188143809Y-28725714D01*
X188000952Y-28725714D01*
X187810476Y-28678095D01*
X187715238Y-28630476D01*
X187620000Y-28535238D01*
X187572380Y-28392380D01*
X187572380Y-28297142D01*
X187620000Y-28154285D01*
X187667619Y-28106666D01*
X188572380Y-27154285D02*
X188572380Y-27725714D01*
X188572380Y-27440000D02*
X187572380Y-27440000D01*
X187715238Y-27535238D01*
X187810476Y-27630476D01*
X187858095Y-27725714D01*
X208828571Y-69365714D02*
X208876190Y-69222857D01*
X208923809Y-69175238D01*
X209019047Y-69127619D01*
X209161904Y-69127619D01*
X209257142Y-69175238D01*
X209304761Y-69222857D01*
X209352380Y-69318095D01*
X209352380Y-69699047D01*
X208352380Y-69699047D01*
X208352380Y-69365714D01*
X208400000Y-69270476D01*
X208447619Y-69222857D01*
X208542857Y-69175238D01*
X208638095Y-69175238D01*
X208733333Y-69222857D01*
X208780952Y-69270476D01*
X208828571Y-69365714D01*
X208828571Y-69699047D01*
X208352380Y-68841904D02*
X208352380Y-68270476D01*
X209352380Y-68556190D02*
X208352380Y-68556190D01*
X209352380Y-67413333D02*
X209352380Y-67984761D01*
X209352380Y-67699047D02*
X208352380Y-67699047D01*
X208495238Y-67794285D01*
X208590476Y-67889523D01*
X208638095Y-67984761D01*
X216007142Y-72961428D02*
X216007142Y-71818571D01*
X216578571Y-72390000D02*
X215435714Y-72390000D01*
X228707142Y-72961428D02*
X228707142Y-71818571D01*
X216007142Y-34861428D02*
X216007142Y-33718571D01*
X239502142Y-34861428D02*
X239502142Y-33718571D01*
X228707142Y-56451428D02*
X228707142Y-55308571D01*
X239502142Y-56451428D02*
X239502142Y-55308571D01*
X240073571Y-55880000D02*
X238930714Y-55880000D01*
X228707142Y-34861428D02*
X228707142Y-33718571D01*
X229278571Y-34290000D02*
X228135714Y-34290000D01*
X216007142Y-56451428D02*
X216007142Y-55308571D01*
X216578571Y-55880000D02*
X215435714Y-55880000D01*
M02*
