G04 #@! TF.GenerationSoftware,KiCad,Pcbnew,5.1.4-e60b266~84~ubuntu18.04.1*
G04 #@! TF.CreationDate,2019-08-27T08:39:42+03:00*
G04 #@! TF.ProjectId,pcb,7063622e-6b69-4636-9164-5f7063625858,rev?*
G04 #@! TF.SameCoordinates,Original*
G04 #@! TF.FileFunction,Copper,L2,Bot*
G04 #@! TF.FilePolarity,Positive*
%FSLAX46Y46*%
G04 Gerber Fmt 4.6, Leading zero omitted, Abs format (unit mm)*
G04 Created by KiCad (PCBNEW 5.1.4-e60b266~84~ubuntu18.04.1) date 2019-08-27 08:39:42*
%MOMM*%
%LPD*%
G04 APERTURE LIST*
%ADD10C,1.400000*%
%ADD11R,1.400000X1.400000*%
%ADD12O,1.727200X1.727200*%
%ADD13R,1.727200X1.727200*%
%ADD14O,1.700000X1.700000*%
%ADD15R,1.700000X1.700000*%
%ADD16C,2.000000*%
%ADD17R,2.000000X2.000000*%
%ADD18C,3.200000*%
%ADD19C,0.800000*%
%ADD20C,1.000000*%
%ADD21C,2.000000*%
%ADD22C,0.250000*%
%ADD23C,0.254000*%
G04 APERTURE END LIST*
D10*
X209630000Y-77980000D03*
X212130000Y-77980000D03*
X214630000Y-77980000D03*
X209630000Y-81280000D03*
X212130000Y-81280000D03*
D11*
X214630000Y-81280000D03*
D12*
X203200000Y-45720000D03*
X200660000Y-45720000D03*
X203200000Y-43180000D03*
X200660000Y-43180000D03*
X203200000Y-40640000D03*
D13*
X200660000Y-40640000D03*
D14*
X54610000Y-74930000D03*
X57150000Y-74930000D03*
X59690000Y-74930000D03*
X62230000Y-74930000D03*
X64770000Y-74930000D03*
X67310000Y-74930000D03*
X69850000Y-74930000D03*
X72390000Y-74930000D03*
X74930000Y-74930000D03*
X77470000Y-74930000D03*
X80010000Y-74930000D03*
X82550000Y-74930000D03*
X85090000Y-74930000D03*
X87630000Y-74930000D03*
X90170000Y-74930000D03*
X92710000Y-74930000D03*
X95250000Y-74930000D03*
X97790000Y-74930000D03*
X100330000Y-74930000D03*
D15*
X102870000Y-74930000D03*
D16*
X228600000Y-68580000D03*
D17*
X215900000Y-68580000D03*
D18*
X154940000Y-17780000D03*
X154940000Y-71120000D03*
X34290000Y-17780000D03*
X34290000Y-71120000D03*
D19*
X189425153Y-44254847D03*
X186690000Y-39370000D03*
X179070000Y-44450000D03*
X180899990Y-49840000D03*
X189230000Y-49530000D03*
X96520000Y-43724990D03*
X96520000Y-71120000D03*
X200660000Y-71082002D03*
X189230000Y-26670000D03*
X186690000Y-33020000D03*
X95250000Y-31750000D03*
X92710000Y-33020000D03*
X90260001Y-34199999D03*
X87630000Y-39370000D03*
X85180001Y-40095001D03*
X82730002Y-40820002D03*
X80010000Y-41275000D03*
X77470000Y-41910000D03*
X74930000Y-42545000D03*
X72480001Y-43270001D03*
X69850000Y-43815000D03*
X67310000Y-55880000D03*
X64770000Y-34925000D03*
X62230000Y-54610000D03*
X59690000Y-52070000D03*
X192278000Y-85090000D03*
X154178000Y-86360000D03*
X110490000Y-107950000D03*
X147320000Y-107950000D03*
X184079949Y-87329299D03*
X175006000Y-91694000D03*
X29845000Y-104140000D03*
X76200000Y-99695000D03*
X120650000Y-99695000D03*
X184785000Y-120650000D03*
X124900000Y-121920000D03*
X29845000Y-98425000D03*
X181102000Y-89916000D03*
X181102000Y-87960000D03*
X193675000Y-120650000D03*
X38735000Y-114935000D03*
X83820000Y-114935000D03*
X88900000Y-118745000D03*
X132080000Y-118745000D03*
X189230000Y-90170000D03*
X189230000Y-86360000D03*
X183140030Y-61722000D03*
X189230000Y-62230000D03*
X202565000Y-120650000D03*
X142875000Y-117475000D03*
X47625000Y-113665000D03*
X56515000Y-113665000D03*
X97155000Y-109220000D03*
X97155000Y-113030000D03*
X139065000Y-111125000D03*
X198120000Y-90170000D03*
X198120000Y-86360000D03*
X182415030Y-62738000D03*
X193040000Y-62992000D03*
X211455000Y-120650000D03*
X147955000Y-116205000D03*
X56515000Y-104140000D03*
X98425000Y-104140000D03*
X80645000Y-104140000D03*
X112395000Y-102870000D03*
X146050000Y-102870000D03*
X207010000Y-90170000D03*
X207010000Y-86360000D03*
X181965020Y-63754000D03*
X195580000Y-63754000D03*
X220345000Y-120650000D03*
X125095000Y-114935000D03*
X30480000Y-117330000D03*
X85090000Y-109855000D03*
X121920000Y-105410000D03*
X158750000Y-104140000D03*
X158750000Y-64770000D03*
X181515010Y-64770000D03*
X229235000Y-120650000D03*
X38735000Y-123190000D03*
X45085000Y-96520000D03*
X48895000Y-97790000D03*
X93345000Y-97790000D03*
X129540000Y-97790000D03*
X133985000Y-113665000D03*
X224790000Y-90170000D03*
X224790000Y-86360000D03*
X181065000Y-71062010D03*
X196792010Y-71062010D03*
X153035000Y-124460000D03*
X142240000Y-124460000D03*
X47625000Y-123825000D03*
X76200000Y-121285000D03*
X80645000Y-121285000D03*
X139065000Y-133985000D03*
X138430000Y-123825000D03*
X138430000Y-121285000D03*
X137795000Y-106045000D03*
X140680000Y-106335000D03*
X140970000Y-100330000D03*
X180340000Y-80264000D03*
X54864000Y-101854000D03*
X190500000Y-77216000D03*
X189230000Y-60960000D03*
X109982000Y-69850000D03*
X109982000Y-84582000D03*
X91095000Y-87920000D03*
X188468000Y-82550000D03*
X143510000Y-87630000D03*
X187706000Y-84074000D03*
X144780000Y-99568000D03*
X231140000Y-99695000D03*
X222250000Y-99695000D03*
X213995000Y-99695000D03*
X204470000Y-99695000D03*
X195580000Y-99695000D03*
X186690000Y-99695000D03*
X177800000Y-99695000D03*
X169545000Y-99695000D03*
X186255000Y-87376000D03*
X184912000Y-87884000D03*
X184912000Y-98044000D03*
X196850000Y-34290000D03*
D20*
X226060000Y-68580000D02*
X203200000Y-45720000D01*
X228600000Y-68580000D02*
X226060000Y-68580000D01*
D21*
X222059989Y-75120011D02*
X227600001Y-69579999D01*
X227600001Y-69579999D02*
X228600000Y-68580000D01*
X153131832Y-75120011D02*
X222059989Y-75120011D01*
X152941821Y-74930000D02*
X153131832Y-75120011D01*
X102870000Y-74930000D02*
X152941821Y-74930000D01*
D22*
X96520000Y-43724990D02*
X96520000Y-71120000D01*
D20*
X100330000Y-73727919D02*
X102937919Y-71120000D01*
X100330000Y-74930000D02*
X100330000Y-73727919D01*
X153835999Y-73420001D02*
X198359999Y-73420001D01*
X102937919Y-71120000D02*
X151535998Y-71120000D01*
X151535998Y-71120000D02*
X153835999Y-73420001D01*
X198359999Y-73420001D02*
X200660000Y-71120000D01*
X200660000Y-71120000D02*
X200660000Y-71082002D01*
D22*
X189230000Y-26670000D02*
X189230000Y-30480000D01*
X189230000Y-30480000D02*
X186690000Y-30480000D01*
X186690000Y-30480000D02*
X186690000Y-33020000D01*
X95250000Y-31750000D02*
X95250000Y-74930000D01*
X92710000Y-74930000D02*
X92710000Y-33020000D01*
X90260001Y-74839999D02*
X90170000Y-74930000D01*
X90260001Y-34199999D02*
X90260001Y-74839999D01*
X87630000Y-39370000D02*
X87630000Y-74930000D01*
X85180001Y-74839999D02*
X85090000Y-74930000D01*
X85180001Y-40095001D02*
X85180001Y-74839999D01*
X82550000Y-41000004D02*
X82730002Y-40820002D01*
X82550000Y-74930000D02*
X82550000Y-41000004D01*
X80010000Y-41275000D02*
X80010000Y-74930000D01*
X77470000Y-74930000D02*
X77470000Y-41910000D01*
X74930000Y-42545000D02*
X74930000Y-74930000D01*
X72390000Y-43360002D02*
X72480001Y-43270001D01*
X72390000Y-74930000D02*
X72390000Y-43360002D01*
X69850000Y-43815000D02*
X69850000Y-74930000D01*
X67310000Y-55880000D02*
X67310000Y-74930000D01*
X64770000Y-34925000D02*
X64770000Y-74930000D01*
X62230000Y-74930000D02*
X62230000Y-54610000D01*
X59690000Y-52070000D02*
X59690000Y-74930000D01*
X185246246Y-85090000D02*
X183976246Y-86360000D01*
X192278000Y-85090000D02*
X185246246Y-85090000D01*
X183976246Y-86360000D02*
X154178000Y-86360000D01*
X110490000Y-107950000D02*
X147320000Y-107950000D01*
X184079949Y-87329299D02*
X184079949Y-91623949D01*
X184079949Y-91623949D02*
X184009898Y-91694000D01*
X184009898Y-91694000D02*
X175006000Y-91694000D01*
X75565000Y-100330000D02*
X76200000Y-99695000D01*
X76200000Y-99695000D02*
X120650000Y-99695000D01*
X124900000Y-124900000D02*
X124900000Y-121920000D01*
X126365000Y-126365000D02*
X124900000Y-124900000D01*
X183515000Y-126365000D02*
X126365000Y-126365000D01*
X184785000Y-120650000D02*
X184785000Y-125095000D01*
X184785000Y-125095000D02*
X183515000Y-126365000D01*
X29845000Y-100330000D02*
X29845000Y-98425000D01*
X31115000Y-100330000D02*
X29845000Y-100330000D01*
X29845000Y-101600000D02*
X29845000Y-98425000D01*
X29845000Y-101600000D02*
X29845000Y-104140000D01*
X29845000Y-100330000D02*
X29845000Y-101600000D01*
X32385000Y-100330000D02*
X50165000Y-100330000D01*
X32385000Y-100330000D02*
X75565000Y-100330000D01*
X31115000Y-100330000D02*
X32385000Y-100330000D01*
X29845000Y-104140000D02*
X29845000Y-100330000D01*
X181102000Y-88138000D02*
X181102000Y-89916000D01*
X193675000Y-120650000D02*
X193675000Y-118745000D01*
X193675000Y-118745000D02*
X133985000Y-118745000D01*
X38735000Y-114935000D02*
X83820000Y-114935000D01*
X88900000Y-118745000D02*
X130175000Y-118745000D01*
X132080000Y-118745000D02*
X133985000Y-118745000D01*
X130175000Y-118745000D02*
X132080000Y-118745000D01*
X189230000Y-90170000D02*
X189230000Y-86360000D01*
X183140030Y-61722000D02*
X183648030Y-62230000D01*
X183648030Y-62230000D02*
X189230000Y-62230000D01*
X202565000Y-120650000D02*
X202565000Y-118745000D01*
X202565000Y-118745000D02*
X201295000Y-117475000D01*
X201295000Y-117475000D02*
X173990000Y-117475000D01*
X173990000Y-117475000D02*
X142875000Y-117475000D01*
X47625000Y-113665000D02*
X56515000Y-113665000D01*
X97155000Y-109220000D02*
X97155000Y-113030000D01*
X97155000Y-109220000D02*
X97155000Y-111125000D01*
X97155000Y-111125000D02*
X139065000Y-111125000D01*
X198120000Y-90170000D02*
X198120000Y-86360000D01*
X182815029Y-63137999D02*
X192894001Y-63137999D01*
X182415030Y-62738000D02*
X182815029Y-63137999D01*
X192894001Y-63137999D02*
X193040000Y-62992000D01*
X211455000Y-120650000D02*
X211455000Y-118745000D01*
X211455000Y-118745000D02*
X208915000Y-116205000D01*
X208915000Y-116205000D02*
X147955000Y-116205000D01*
X56515000Y-104140000D02*
X80645000Y-104140000D01*
X80645000Y-104140000D02*
X98425000Y-104140000D01*
X80645000Y-104140000D02*
X81280000Y-104140000D01*
X81280000Y-104140000D02*
X78740000Y-104140000D01*
X78740000Y-104140000D02*
X85090000Y-104140000D01*
X112395000Y-102870000D02*
X146050000Y-102870000D01*
X207010000Y-90170000D02*
X207010000Y-86360000D01*
X181965020Y-63754000D02*
X195580000Y-63754000D01*
X220345000Y-120650000D02*
X220345000Y-119380000D01*
X220345000Y-119380000D02*
X215900000Y-114935000D01*
X215900000Y-114935000D02*
X125095000Y-114935000D01*
X31045685Y-117330000D02*
X31190685Y-117475000D01*
X30480000Y-117330000D02*
X31045685Y-117330000D01*
X31190685Y-117475000D02*
X85090000Y-117475000D01*
X85090000Y-117475000D02*
X85090000Y-109855000D01*
X85090000Y-109855000D02*
X85090000Y-108585000D01*
X85090000Y-108585000D02*
X87630000Y-106045000D01*
X87630000Y-106045000D02*
X88265000Y-105410000D01*
X88265000Y-105410000D02*
X121920000Y-105410000D01*
X123190000Y-104140000D02*
X121920000Y-105410000D01*
X158750000Y-104140000D02*
X123190000Y-104140000D01*
X180949325Y-64770000D02*
X158750000Y-64770000D01*
X181515010Y-64770000D02*
X180949325Y-64770000D01*
X229235000Y-120650000D02*
X229235000Y-120015000D01*
X229235000Y-120015000D02*
X222885000Y-113665000D01*
X222885000Y-113665000D02*
X133985000Y-113665000D01*
X38735000Y-125730000D02*
X20955000Y-125730000D01*
X38735000Y-123190000D02*
X38735000Y-125730000D01*
X20955000Y-125730000D02*
X20955000Y-96520000D01*
X20955000Y-96520000D02*
X45085000Y-96520000D01*
X48895000Y-97790000D02*
X93345000Y-97790000D01*
X93345000Y-97790000D02*
X129540000Y-97790000D01*
X224790000Y-90170000D02*
X224790000Y-86360000D01*
X181065000Y-71062010D02*
X196792010Y-71062010D01*
X153035000Y-124460000D02*
X142240000Y-124460000D01*
X47625000Y-123825000D02*
X47625000Y-125095000D01*
X47625000Y-125095000D02*
X74295000Y-125095000D01*
X74295000Y-125095000D02*
X74930000Y-125095000D01*
X74930000Y-125095000D02*
X76200000Y-123825000D01*
X76200000Y-123825000D02*
X76200000Y-121285000D01*
X80645000Y-121285000D02*
X93345000Y-133985000D01*
X93345000Y-133985000D02*
X139065000Y-133985000D01*
X138430000Y-123825000D02*
X138430000Y-121285000D01*
X137795000Y-106045000D02*
X140970000Y-106045000D01*
X140970000Y-106045000D02*
X140680000Y-106335000D01*
X140970000Y-83820000D02*
X140970000Y-100330000D01*
X140970000Y-83820000D02*
X140970000Y-80264000D01*
X140970000Y-80264000D02*
X180340000Y-80264000D01*
X54864000Y-101854000D02*
X55880000Y-100838000D01*
X55880000Y-100838000D02*
X134112000Y-100838000D01*
X134112000Y-100838000D02*
X134112000Y-78232000D01*
X134112000Y-78232000D02*
X135128000Y-77216000D01*
X135128000Y-77216000D02*
X190500000Y-77216000D01*
X189230000Y-60960000D02*
X159766000Y-60960000D01*
X159766000Y-60960000D02*
X150876000Y-69850000D01*
X150876000Y-69850000D02*
X109982000Y-69850000D01*
X109982000Y-84582000D02*
X109982000Y-87376000D01*
X109982000Y-87376000D02*
X109474000Y-87884000D01*
X109474000Y-87884000D02*
X91131000Y-87884000D01*
X91131000Y-87884000D02*
X91095000Y-87920000D01*
X188468000Y-82550000D02*
X183388000Y-82550000D01*
X183388000Y-82550000D02*
X181864000Y-84074000D01*
X181864000Y-84074000D02*
X145413590Y-84074000D01*
X145413590Y-84074000D02*
X143510000Y-85977590D01*
X143510000Y-85977590D02*
X143510000Y-87630000D01*
X184092998Y-84074000D02*
X183330998Y-84836000D01*
X187706000Y-84074000D02*
X184092998Y-84074000D01*
X183330998Y-84836000D02*
X145542000Y-84836000D01*
X145542000Y-84836000D02*
X145288000Y-84836000D01*
X145288000Y-84836000D02*
X144780000Y-85344000D01*
X144780000Y-85344000D02*
X144780000Y-99568000D01*
X231140000Y-99695000D02*
X222250000Y-99695000D01*
X222250000Y-99695000D02*
X213995000Y-99695000D01*
X213995000Y-99695000D02*
X204470000Y-99695000D01*
X204470000Y-99695000D02*
X195580000Y-99695000D01*
X195580000Y-99695000D02*
X186690000Y-99695000D01*
X185801000Y-87830000D02*
X185801000Y-99695000D01*
X186255000Y-87376000D02*
X185801000Y-87830000D01*
X186690000Y-99695000D02*
X185801000Y-99695000D01*
X185801000Y-99695000D02*
X169545000Y-99695000D01*
X184912000Y-87884000D02*
X184912000Y-98044000D01*
X200660000Y-45720000D02*
X196850000Y-41910000D01*
X196850000Y-41910000D02*
X196850000Y-34290000D01*
D23*
G36*
X190373000Y-50673000D02*
G01*
X177927000Y-50673000D01*
X177927000Y-38227000D01*
X190373000Y-38227000D01*
X190373000Y-50673000D01*
X190373000Y-50673000D01*
G37*
X190373000Y-50673000D02*
X177927000Y-50673000D01*
X177927000Y-38227000D01*
X190373000Y-38227000D01*
X190373000Y-50673000D01*
M02*
