M48
; DRILL file {KiCad 5.1.4-e60b266~84~ubuntu18.04.1} date Вт 27 авг 2019 08:53:43
; FORMAT={-:-/ absolute / inch / decimal}
; #@! TF.CreationDate,2019-08-27T08:53:43+03:00
; #@! TF.GenerationSoftware,Kicad,Pcbnew,5.1.4-e60b266~84~ubuntu18.04.1
; #@! TF.FileFunction,Plated,1,2,PTH
FMAT,2
INCH
T1C0.0157
T2C0.0354
T3C0.0394
T4C0.0400
T5C0.0402
T6C0.0984
%
G90
G05
T1
X1.175Y-3.875
X1.175Y-4.1
X1.2Y-4.6193
X1.525Y-4.525
X1.525Y-4.85
X1.775Y-3.8
X1.875Y-4.475
X1.875Y-4.875
X1.925Y-3.85
X2.16Y-4.01
X2.225Y-4.1
X2.225Y-4.475
X2.35Y-2.05
X2.45Y-2.15
X2.55Y-1.375
X2.65Y-2.2
X2.75Y-1.725
X2.8535Y-1.7035
X2.95Y-1.675
X3.0Y-3.925
X3.0Y-4.775
X3.05Y-1.65
X3.15Y-1.625
X3.175Y-4.1
X3.175Y-4.775
X3.2571Y-1.6071
X3.3Y-4.525
X3.35Y-4.325
X3.3535Y-1.5785
X3.45Y-1.55
X3.5Y-4.675
X3.5535Y-1.3465
X3.5864Y-3.4614
X3.65Y-1.3
X3.675Y-3.85
X3.75Y-1.25
X3.8Y-1.7215
X3.8Y-2.8
X3.825Y-4.3
X3.825Y-4.45
X3.875Y-4.1
X4.33Y-2.75
X4.33Y-3.33
X4.35Y-4.25
X4.425Y-4.05
X4.75Y-3.925
X4.8Y-4.15
X4.9173Y-4.8
X4.925Y-4.525
X5.1Y-3.85
X5.2Y-4.675
X5.275Y-4.475
X5.425Y-4.175
X5.45Y-4.775
X5.45Y-4.875
X5.475Y-4.375
X5.475Y-5.275
X5.5386Y-4.1864
X5.55Y-3.95
X5.6Y-4.9
X5.625Y-4.625
X5.65Y-3.45
X5.7Y-3.92
X5.75Y-4.05
X5.8Y-4.25
X5.825Y-4.575
X6.025Y-4.9
X6.07Y-3.4
X6.25Y-2.55
X6.25Y-4.1
X6.675Y-3.925
X6.89Y-3.61
X7.0Y-3.925
X7.05Y-1.75
X7.1Y-3.16
X7.122Y-1.9622
X7.1285Y-2.7977
X7.13Y-3.463
X7.13Y-3.54
X7.1463Y-2.55
X7.164Y-2.51
X7.1817Y-2.47
X7.2102Y-2.43
X7.2472Y-3.4382
X7.275Y-4.75
X7.28Y-3.46
X7.28Y-3.86
X7.3329Y-3.44
X7.35Y-1.3
X7.35Y-1.55
X7.35Y-3.925
X7.39Y-3.31
X7.42Y-3.25
X7.45Y-1.05
X7.45Y-1.95
X7.45Y-2.4
X7.45Y-2.45
X7.45Y-3.4
X7.45Y-3.55
X7.4577Y-1.7423
X7.5Y-3.04
X7.57Y-3.35
X7.6Y-2.48
X7.625Y-4.75
X7.7Y-2.51
X7.7Y-3.925
X7.7477Y-2.7977
X7.75Y-1.35
X7.8Y-3.4
X7.8Y-3.55
X7.9Y-2.7985
X7.975Y-4.75
X8.05Y-3.925
X8.15Y-3.4
X8.15Y-3.55
X8.325Y-4.75
X8.425Y-3.925
X8.675Y-4.75
X8.75Y-3.925
X8.85Y-3.4
X8.85Y-3.55
X9.025Y-4.75
X9.1Y-3.925
T2
X8.2531Y-3.0701
X8.2531Y-3.2
X8.3516Y-3.0701
X8.3516Y-3.2
X8.45Y-3.0701
X8.45Y-3.2
T3
X2.15Y-2.95
X2.25Y-2.95
X2.35Y-2.95
X2.45Y-2.95
X2.55Y-2.95
X2.65Y-2.95
X2.75Y-2.95
X2.85Y-2.95
X2.95Y-2.95
X3.05Y-2.95
X3.15Y-2.95
X3.25Y-2.95
X3.35Y-2.95
X3.45Y-2.95
X3.55Y-2.95
X3.65Y-2.95
X3.75Y-2.95
X3.85Y-2.95
X3.95Y-2.95
X4.05Y-2.95
T4
X7.9Y-1.6
X7.9Y-1.7
X7.9Y-1.8
X8.0Y-1.6
X8.0Y-1.7
X8.0Y-1.8
T5
X8.5Y-2.7
X9.0Y-2.7
T6
X1.35Y-0.7
X1.35Y-2.8
X6.1Y-0.7
X6.1Y-2.8
T0
M30
